%TF.GenerationSoftware,KiCad,Pcbnew,9.0.4*%
%TF.CreationDate,2025-12-02T01:12:31+00:00*%
%TF.ProjectId,dtv2,64747632-2e6b-4696-9361-645f70636258,rev?*%
%TF.SameCoordinates,Original*%
%TF.FileFunction,Soldermask,Top*%
%TF.FilePolarity,Negative*%
%FSLAX46Y46*%
G04 Gerber Fmt 4.6, Leading zero omitted, Abs format (unit mm)*
G04 Created by KiCad (PCBNEW 9.0.4) date 2025-12-02 01:12:31*
%MOMM*%
%LPD*%
G01*
G04 APERTURE LIST*
G04 Aperture macros list*
%AMRoundRect*
0 Rectangle with rounded corners*
0 $1 Rounding radius*
0 $2 $3 $4 $5 $6 $7 $8 $9 X,Y pos of 4 corners*
0 Add a 4 corners polygon primitive as box body*
4,1,4,$2,$3,$4,$5,$6,$7,$8,$9,$2,$3,0*
0 Add four circle primitives for the rounded corners*
1,1,$1+$1,$2,$3*
1,1,$1+$1,$4,$5*
1,1,$1+$1,$6,$7*
1,1,$1+$1,$8,$9*
0 Add four rect primitives between the rounded corners*
20,1,$1+$1,$2,$3,$4,$5,0*
20,1,$1+$1,$4,$5,$6,$7,0*
20,1,$1+$1,$6,$7,$8,$9,0*
20,1,$1+$1,$8,$9,$2,$3,0*%
G04 Aperture macros list end*
%ADD10RoundRect,0.250000X0.262500X0.450000X-0.262500X0.450000X-0.262500X-0.450000X0.262500X-0.450000X0*%
%ADD11RoundRect,0.250000X-0.262500X-0.450000X0.262500X-0.450000X0.262500X0.450000X-0.262500X0.450000X0*%
%ADD12RoundRect,0.243750X0.243750X0.456250X-0.243750X0.456250X-0.243750X-0.456250X0.243750X-0.456250X0*%
%ADD13RoundRect,0.250000X-0.450000X0.262500X-0.450000X-0.262500X0.450000X-0.262500X0.450000X0.262500X0*%
%ADD14RoundRect,0.250000X0.450000X-0.262500X0.450000X0.262500X-0.450000X0.262500X-0.450000X-0.262500X0*%
%ADD15C,2.200000*%
%ADD16RoundRect,0.062500X0.127500X0.062500X-0.127500X0.062500X-0.127500X-0.062500X0.127500X-0.062500X0*%
%ADD17RoundRect,0.125000X0.125000X0.125000X-0.125000X0.125000X-0.125000X-0.125000X0.125000X-0.125000X0*%
%ADD18RoundRect,0.050000X-0.050000X0.375000X-0.050000X-0.375000X0.050000X-0.375000X0.050000X0.375000X0*%
%ADD19RoundRect,0.050000X-0.375000X0.050000X-0.375000X-0.050000X0.375000X-0.050000X0.375000X0.050000X0*%
%ADD20R,1.650000X1.650000*%
%ADD21RoundRect,0.243750X0.456250X-0.243750X0.456250X0.243750X-0.456250X0.243750X-0.456250X-0.243750X0*%
%ADD22RoundRect,0.250000X0.475000X-0.250000X0.475000X0.250000X-0.475000X0.250000X-0.475000X-0.250000X0*%
%ADD23RoundRect,0.150000X-0.150000X0.512500X-0.150000X-0.512500X0.150000X-0.512500X0.150000X0.512500X0*%
%ADD24RoundRect,0.250000X-0.450000X-0.350000X0.450000X-0.350000X0.450000X0.350000X-0.450000X0.350000X0*%
%ADD25RoundRect,0.250000X-0.475000X0.250000X-0.475000X-0.250000X0.475000X-0.250000X0.475000X0.250000X0*%
%ADD26RoundRect,0.062500X0.062500X-0.375000X0.062500X0.375000X-0.062500X0.375000X-0.062500X-0.375000X0*%
%ADD27RoundRect,0.062500X0.375000X-0.062500X0.375000X0.062500X-0.375000X0.062500X-0.375000X-0.062500X0*%
%ADD28R,1.600000X1.600000*%
%ADD29RoundRect,0.250000X-0.250000X-0.475000X0.250000X-0.475000X0.250000X0.475000X-0.250000X0.475000X0*%
%ADD30RoundRect,0.075000X0.425000X-0.175000X0.425000X0.175000X-0.425000X0.175000X-0.425000X-0.175000X0*%
%ADD31O,1.700000X0.900000*%
%ADD32RoundRect,0.243750X-0.243750X-0.456250X0.243750X-0.456250X0.243750X0.456250X-0.243750X0.456250X0*%
%ADD33RoundRect,0.250000X0.250000X0.475000X-0.250000X0.475000X-0.250000X-0.475000X0.250000X-0.475000X0*%
%ADD34C,0.650000*%
%ADD35R,0.600000X1.450000*%
%ADD36R,0.300000X1.450000*%
%ADD37O,1.000000X2.100000*%
%ADD38O,1.000000X1.600000*%
%ADD39RoundRect,0.375000X-1.675000X-0.375000X1.675000X-0.375000X1.675000X0.375000X-1.675000X0.375000X0*%
%ADD40RoundRect,0.150000X-0.625000X0.150000X-0.625000X-0.150000X0.625000X-0.150000X0.625000X0.150000X0*%
%ADD41RoundRect,0.250000X-1.000000X0.350000X-1.000000X-0.350000X1.000000X-0.350000X1.000000X0.350000X0*%
%ADD42RoundRect,0.250000X0.600000X-0.250000X0.600000X0.250000X-0.600000X0.250000X-0.600000X-0.250000X0*%
G04 APERTURE END LIST*
D10*
%TO.C,R2*%
X113412500Y-98800000D03*
X111587500Y-98800000D03*
%TD*%
D11*
%TO.C,R7*%
X110837500Y-94000000D03*
X112662500Y-94000000D03*
%TD*%
D12*
%TO.C,D3*%
X107937500Y-98800000D03*
X106062500Y-98800000D03*
%TD*%
D13*
%TO.C,R15*%
X122250000Y-70787500D03*
X122250000Y-72612500D03*
%TD*%
D14*
%TO.C,R4*%
X124250000Y-72612500D03*
X124250000Y-70787500D03*
%TD*%
D15*
%TO.C,H2*%
X128000000Y-67000000D03*
%TD*%
D11*
%TO.C,R9*%
X107837500Y-86000000D03*
X109662500Y-86000000D03*
%TD*%
D16*
%TO.C,U5*%
X116740000Y-83425000D03*
D17*
X116600000Y-83550000D03*
X115800000Y-83550000D03*
X115000000Y-83550000D03*
X114200000Y-83550000D03*
X113400000Y-83550000D03*
X113400000Y-82750000D03*
X113400000Y-81950000D03*
X114200000Y-81950000D03*
X115000000Y-81950000D03*
X115800000Y-81950000D03*
X116600000Y-81950000D03*
X116600000Y-82750000D03*
%TD*%
D11*
%TO.C,R8*%
X111437500Y-91750000D03*
X113262500Y-91750000D03*
%TD*%
D14*
%TO.C,R18*%
X122250000Y-76912500D03*
X122250000Y-75087500D03*
%TD*%
%TO.C,R3*%
X121000000Y-83662500D03*
X121000000Y-81837500D03*
%TD*%
D18*
%TO.C,U1*%
X115800000Y-71050000D03*
X115400000Y-71050000D03*
X115000000Y-71050000D03*
X114600000Y-71050000D03*
X114200000Y-71050000D03*
D19*
X113550000Y-71700000D03*
X113550000Y-72100000D03*
X113550000Y-72500000D03*
X113550000Y-72900000D03*
X113550000Y-73300000D03*
D18*
X114200000Y-73950000D03*
X114600000Y-73950000D03*
X115000000Y-73950000D03*
X115400000Y-73950000D03*
X115800000Y-73950000D03*
D19*
X116450000Y-73300000D03*
X116450000Y-72900000D03*
X116450000Y-72500000D03*
X116450000Y-72100000D03*
X116450000Y-71700000D03*
D20*
X115000000Y-72500000D03*
%TD*%
D15*
%TO.C,H4*%
X128000000Y-98000000D03*
%TD*%
D21*
%TO.C,D2*%
X120250000Y-76937500D03*
X120250000Y-75062500D03*
%TD*%
D22*
%TO.C,C7*%
X120500000Y-68200000D03*
X120500000Y-66300000D03*
%TD*%
D23*
%TO.C,U2*%
X110200000Y-76962500D03*
X108300000Y-76962500D03*
X109250000Y-79237500D03*
%TD*%
D10*
%TO.C,R11*%
X115912500Y-79750000D03*
X114087500Y-79750000D03*
%TD*%
D24*
%TO.C,Y1*%
X115650000Y-67850000D03*
X117850000Y-67850000D03*
X117850000Y-66150000D03*
X115650000Y-66150000D03*
%TD*%
D11*
%TO.C,R10*%
X107837500Y-91000000D03*
X109662500Y-91000000D03*
%TD*%
D25*
%TO.C,C6*%
X119000000Y-81800000D03*
X119000000Y-83700000D03*
%TD*%
D26*
%TO.C,U3*%
X113750000Y-89437500D03*
X114250000Y-89437500D03*
X114750000Y-89437500D03*
X115250000Y-89437500D03*
D27*
X115937500Y-88750000D03*
X115937500Y-88250000D03*
X115937500Y-87750000D03*
X115937500Y-87250000D03*
D26*
X115250000Y-86562500D03*
X114750000Y-86562500D03*
X114250000Y-86562500D03*
X113750000Y-86562500D03*
D27*
X113062500Y-87250000D03*
X113062500Y-87750000D03*
X113062500Y-88250000D03*
X113062500Y-88750000D03*
D28*
X114500000Y-88000000D03*
%TD*%
D29*
%TO.C,C5*%
X111550000Y-96250000D03*
X113450000Y-96250000D03*
%TD*%
D14*
%TO.C,R16*%
X120250000Y-72612500D03*
X120250000Y-70787500D03*
%TD*%
D10*
%TO.C,R12*%
X115412500Y-77500000D03*
X113587500Y-77500000D03*
%TD*%
D15*
%TO.C,H1*%
X102000000Y-67000000D03*
%TD*%
D30*
%TO.C,SW4*%
X127250000Y-73800000D03*
X127250000Y-77200000D03*
D31*
X128850000Y-73325000D03*
X128850000Y-77675000D03*
%TD*%
D29*
%TO.C,C4*%
X108800000Y-74750000D03*
X110700000Y-74750000D03*
%TD*%
%TO.C,C3*%
X108300000Y-81700000D03*
X110200000Y-81700000D03*
%TD*%
D11*
%TO.C,R17*%
X106087500Y-96500000D03*
X107912500Y-96500000D03*
%TD*%
D32*
%TO.C,D1*%
X123062500Y-66500000D03*
X124937500Y-66500000D03*
%TD*%
D33*
%TO.C,C1*%
X110700000Y-72500000D03*
X108800000Y-72500000D03*
%TD*%
D34*
%TO.C,J1*%
X116860000Y-93400000D03*
X122640000Y-93400000D03*
D35*
X116500000Y-91955000D03*
X117300000Y-91955000D03*
D36*
X118500000Y-91955000D03*
X119500000Y-91955000D03*
X120000000Y-91955000D03*
X121000000Y-91955000D03*
D35*
X122200000Y-91955000D03*
X123000000Y-91955000D03*
X123000000Y-91955000D03*
X122200000Y-91955000D03*
D36*
X121500000Y-91955000D03*
X120500000Y-91955000D03*
X119000000Y-91955000D03*
X118000000Y-91955000D03*
D35*
X117300000Y-91955000D03*
X116500000Y-91955000D03*
D37*
X115430000Y-92870000D03*
D38*
X115430000Y-97050000D03*
D37*
X124070000Y-92870000D03*
D38*
X124070000Y-97050000D03*
%TD*%
D39*
%TO.C,SW1*%
X104250000Y-84960000D03*
X104250000Y-87460000D03*
X104250000Y-89960000D03*
%TD*%
D11*
%TO.C,R6*%
X107837500Y-89000000D03*
X109662500Y-89000000D03*
%TD*%
D15*
%TO.C,H3*%
X102000000Y-98000000D03*
%TD*%
D40*
%TO.C,J3*%
X125925000Y-84500000D03*
X125925000Y-85500000D03*
X125925000Y-86500000D03*
X125925000Y-87500000D03*
X125925000Y-88500000D03*
X125925000Y-89500000D03*
X125925000Y-90500000D03*
X125925000Y-91500000D03*
X125925000Y-92500000D03*
X125925000Y-93500000D03*
D41*
X128250000Y-83250000D03*
X128250000Y-94750000D03*
%TD*%
D42*
%TO.C,SW3*%
X105675000Y-80000000D03*
X105675000Y-78000000D03*
X105675000Y-74000000D03*
X105675000Y-72000000D03*
X103375000Y-80000000D03*
X103375000Y-78000000D03*
X103375000Y-74000000D03*
X103375000Y-72000000D03*
%TD*%
D31*
%TO.C,SW2*%
X128850000Y-93175000D03*
X128850000Y-88825000D03*
%TD*%
M02*
