%TF.GenerationSoftware,KiCad,Pcbnew,9.0.4*%
%TF.CreationDate,2025-12-02T01:12:31+00:00*%
%TF.ProjectId,dtv2,64747632-2e6b-4696-9361-645f70636258,rev?*%
%TF.SameCoordinates,Original*%
%TF.FileFunction,Copper,L1,Top*%
%TF.FilePolarity,Positive*%
%FSLAX46Y46*%
G04 Gerber Fmt 4.6, Leading zero omitted, Abs format (unit mm)*
G04 Created by KiCad (PCBNEW 9.0.4) date 2025-12-02 01:12:31*
%MOMM*%
%LPD*%
G01*
G04 APERTURE LIST*
G04 Aperture macros list*
%AMRoundRect*
0 Rectangle with rounded corners*
0 $1 Rounding radius*
0 $2 $3 $4 $5 $6 $7 $8 $9 X,Y pos of 4 corners*
0 Add a 4 corners polygon primitive as box body*
4,1,4,$2,$3,$4,$5,$6,$7,$8,$9,$2,$3,0*
0 Add four circle primitives for the rounded corners*
1,1,$1+$1,$2,$3*
1,1,$1+$1,$4,$5*
1,1,$1+$1,$6,$7*
1,1,$1+$1,$8,$9*
0 Add four rect primitives between the rounded corners*
20,1,$1+$1,$2,$3,$4,$5,0*
20,1,$1+$1,$4,$5,$6,$7,0*
20,1,$1+$1,$6,$7,$8,$9,0*
20,1,$1+$1,$8,$9,$2,$3,0*%
G04 Aperture macros list end*
%TA.AperFunction,EtchedComponent*%
%ADD10C,0.000000*%
%TD*%
%TA.AperFunction,SMDPad,CuDef*%
%ADD11RoundRect,0.250000X0.262500X0.450000X-0.262500X0.450000X-0.262500X-0.450000X0.262500X-0.450000X0*%
%TD*%
%TA.AperFunction,SMDPad,CuDef*%
%ADD12RoundRect,0.250000X-0.262500X-0.450000X0.262500X-0.450000X0.262500X0.450000X-0.262500X0.450000X0*%
%TD*%
%TA.AperFunction,SMDPad,CuDef*%
%ADD13RoundRect,0.243750X0.243750X0.456250X-0.243750X0.456250X-0.243750X-0.456250X0.243750X-0.456250X0*%
%TD*%
%TA.AperFunction,SMDPad,CuDef*%
%ADD14RoundRect,0.250000X-0.450000X0.262500X-0.450000X-0.262500X0.450000X-0.262500X0.450000X0.262500X0*%
%TD*%
%TA.AperFunction,SMDPad,CuDef*%
%ADD15RoundRect,0.250000X0.450000X-0.262500X0.450000X0.262500X-0.450000X0.262500X-0.450000X-0.262500X0*%
%TD*%
%TA.AperFunction,SMDPad,CuDef*%
%ADD16RoundRect,0.062500X0.127500X0.062500X-0.127500X0.062500X-0.127500X-0.062500X0.127500X-0.062500X0*%
%TD*%
%TA.AperFunction,SMDPad,CuDef*%
%ADD17RoundRect,0.125000X0.125000X0.125000X-0.125000X0.125000X-0.125000X-0.125000X0.125000X-0.125000X0*%
%TD*%
%TA.AperFunction,SMDPad,CuDef*%
%ADD18R,0.460000X0.460000*%
%TD*%
%TA.AperFunction,SMDPad,CuDef*%
%ADD19R,1.000000X0.460000*%
%TD*%
%TA.AperFunction,SMDPad,CuDef*%
%ADD20RoundRect,0.050000X-0.050000X0.375000X-0.050000X-0.375000X0.050000X-0.375000X0.050000X0.375000X0*%
%TD*%
%TA.AperFunction,SMDPad,CuDef*%
%ADD21RoundRect,0.050000X-0.375000X0.050000X-0.375000X-0.050000X0.375000X-0.050000X0.375000X0.050000X0*%
%TD*%
%TA.AperFunction,HeatsinkPad*%
%ADD22R,1.650000X1.650000*%
%TD*%
%TA.AperFunction,SMDPad,CuDef*%
%ADD23RoundRect,0.243750X0.456250X-0.243750X0.456250X0.243750X-0.456250X0.243750X-0.456250X-0.243750X0*%
%TD*%
%TA.AperFunction,SMDPad,CuDef*%
%ADD24RoundRect,0.250000X0.475000X-0.250000X0.475000X0.250000X-0.475000X0.250000X-0.475000X-0.250000X0*%
%TD*%
%TA.AperFunction,SMDPad,CuDef*%
%ADD25RoundRect,0.150000X-0.150000X0.512500X-0.150000X-0.512500X0.150000X-0.512500X0.150000X0.512500X0*%
%TD*%
%TA.AperFunction,SMDPad,CuDef*%
%ADD26RoundRect,0.250000X-0.450000X-0.350000X0.450000X-0.350000X0.450000X0.350000X-0.450000X0.350000X0*%
%TD*%
%TA.AperFunction,SMDPad,CuDef*%
%ADD27RoundRect,0.250000X-0.475000X0.250000X-0.475000X-0.250000X0.475000X-0.250000X0.475000X0.250000X0*%
%TD*%
%TA.AperFunction,SMDPad,CuDef*%
%ADD28RoundRect,0.062500X0.062500X-0.375000X0.062500X0.375000X-0.062500X0.375000X-0.062500X-0.375000X0*%
%TD*%
%TA.AperFunction,SMDPad,CuDef*%
%ADD29RoundRect,0.062500X0.375000X-0.062500X0.375000X0.062500X-0.375000X0.062500X-0.375000X-0.062500X0*%
%TD*%
%TA.AperFunction,HeatsinkPad*%
%ADD30R,1.600000X1.600000*%
%TD*%
%TA.AperFunction,SMDPad,CuDef*%
%ADD31RoundRect,0.250000X-0.250000X-0.475000X0.250000X-0.475000X0.250000X0.475000X-0.250000X0.475000X0*%
%TD*%
%TA.AperFunction,SMDPad,CuDef*%
%ADD32RoundRect,0.075000X0.425000X-0.175000X0.425000X0.175000X-0.425000X0.175000X-0.425000X-0.175000X0*%
%TD*%
%TA.AperFunction,ComponentPad*%
%ADD33O,1.700000X0.900000*%
%TD*%
%TA.AperFunction,SMDPad,CuDef*%
%ADD34RoundRect,0.243750X-0.243750X-0.456250X0.243750X-0.456250X0.243750X0.456250X-0.243750X0.456250X0*%
%TD*%
%TA.AperFunction,SMDPad,CuDef*%
%ADD35RoundRect,0.250000X0.250000X0.475000X-0.250000X0.475000X-0.250000X-0.475000X0.250000X-0.475000X0*%
%TD*%
%TA.AperFunction,SMDPad,CuDef*%
%ADD36R,0.600000X1.450000*%
%TD*%
%TA.AperFunction,SMDPad,CuDef*%
%ADD37R,0.300000X1.450000*%
%TD*%
%TA.AperFunction,HeatsinkPad*%
%ADD38O,1.000000X2.100000*%
%TD*%
%TA.AperFunction,HeatsinkPad*%
%ADD39O,1.000000X1.600000*%
%TD*%
%TA.AperFunction,SMDPad,CuDef*%
%ADD40RoundRect,0.375000X-1.675000X-0.375000X1.675000X-0.375000X1.675000X0.375000X-1.675000X0.375000X0*%
%TD*%
%TA.AperFunction,SMDPad,CuDef*%
%ADD41RoundRect,0.150000X-0.625000X0.150000X-0.625000X-0.150000X0.625000X-0.150000X0.625000X0.150000X0*%
%TD*%
%TA.AperFunction,SMDPad,CuDef*%
%ADD42RoundRect,0.250000X-1.000000X0.350000X-1.000000X-0.350000X1.000000X-0.350000X1.000000X0.350000X0*%
%TD*%
%TA.AperFunction,SMDPad,CuDef*%
%ADD43RoundRect,0.250000X0.600000X-0.250000X0.600000X0.250000X-0.600000X0.250000X-0.600000X-0.250000X0*%
%TD*%
%TA.AperFunction,ViaPad*%
%ADD44C,0.600000*%
%TD*%
%TA.AperFunction,Conductor*%
%ADD45C,0.300000*%
%TD*%
%TA.AperFunction,Conductor*%
%ADD46C,0.152000*%
%TD*%
%TA.AperFunction,Conductor*%
%ADD47C,0.500000*%
%TD*%
%TA.AperFunction,Conductor*%
%ADD48C,0.200000*%
%TD*%
%TA.AperFunction,Conductor*%
%ADD49C,1.000000*%
%TD*%
%TA.AperFunction,Conductor*%
%ADD50C,0.700000*%
%TD*%
%TA.AperFunction,Conductor*%
%ADD51C,1.500000*%
%TD*%
G04 APERTURE END LIST*
D10*
%TA.AperFunction,EtchedComponent*%
%TO.C,E1*%
G36*
X127012270Y-59311270D02*
G01*
X111501270Y-59311270D01*
X111501270Y-61108730D01*
X112501270Y-61108730D01*
X112501270Y-61719406D01*
X113411270Y-62479406D01*
X113411270Y-65011270D01*
X112948730Y-65011270D01*
X112948730Y-62730601D01*
X112449546Y-62321270D01*
X109298730Y-62321270D01*
X109298730Y-61108730D01*
X110298730Y-61108730D01*
X110298730Y-60311270D01*
X104501270Y-60311270D01*
X104501270Y-62978730D01*
X112501270Y-62978730D01*
X112501270Y-65011270D01*
X111498730Y-65011270D01*
X111498730Y-64311270D01*
X110301270Y-64311270D01*
X110301270Y-65011270D01*
X109298730Y-65011270D01*
X109298730Y-64271270D01*
X102318730Y-64271270D01*
X102318730Y-58098730D01*
X127012270Y-58098730D01*
X127012270Y-59311270D01*
G37*
%TD.AperFunction*%
%TD*%
D11*
%TO.P,R2,1*%
%TO.N,Net-(J1-CC1)*%
X113412500Y-98800000D03*
%TO.P,R2,2*%
%TO.N,GND*%
X111587500Y-98800000D03*
%TD*%
D12*
%TO.P,R7,1*%
%TO.N,Net-(U3-TS)*%
X110837500Y-94000000D03*
%TO.P,R7,2*%
%TO.N,+5V*%
X112662500Y-94000000D03*
%TD*%
D13*
%TO.P,D3,1,K*%
%TO.N,Net-(D3-K)*%
X107937500Y-98800000D03*
%TO.P,D3,2,A*%
%TO.N,Net-(D3-A)*%
X106062500Y-98800000D03*
%TD*%
D14*
%TO.P,R15,1*%
%TO.N,VIN_DIV*%
X122250000Y-70787500D03*
%TO.P,R15,2*%
%TO.N,Net-(SW1-A)*%
X122250000Y-72612500D03*
%TD*%
D15*
%TO.P,R4,1*%
%TO.N,Net-(U1-PA2{slash}R{slash}T1{slash}SDA2{slash}SCS_{slash}PWM2{slash}TMR1{slash}CN)*%
X124250000Y-72612500D03*
%TO.P,R4,2*%
%TO.N,Net-(D1-A)*%
X124250000Y-70787500D03*
%TD*%
D12*
%TO.P,R9,1*%
%TO.N,GND*%
X107837500Y-86000000D03*
%TO.P,R9,2*%
%TO.N,Net-(U3-ILIM)*%
X109662500Y-86000000D03*
%TD*%
D16*
%TO.P,U5,1,AVDDVCSEL*%
%TO.N,+3V3*%
X116740000Y-83425000D03*
D17*
X116600000Y-83550000D03*
%TO.P,U5,2,AVSSVCSEL*%
%TO.N,GND*%
X115800000Y-83550000D03*
%TO.P,U5,3,GND*%
X115000000Y-83550000D03*
%TO.P,U5,4,GND*%
X114200000Y-83550000D03*
%TO.P,U5,5,XSHUT*%
%TO.N,XSHUT*%
X113400000Y-83550000D03*
%TO.P,U5,6,GND*%
%TO.N,GND*%
X113400000Y-82750000D03*
%TO.P,U5,7,GPIO1*%
%TO.N,ToF_INT*%
X113400000Y-81950000D03*
%TO.P,U5,8,DNC*%
%TO.N,unconnected-(U5-DNC-Pad8)*%
X114200000Y-81950000D03*
%TO.P,U5,9,SDA*%
%TO.N,ToF_SDA*%
X115000000Y-81950000D03*
%TO.P,U5,10,SCL*%
%TO.N,ToF_SCL*%
X115800000Y-81950000D03*
%TO.P,U5,11,AVDD*%
%TO.N,+3V3*%
X116600000Y-81950000D03*
%TO.P,U5,12,GND*%
%TO.N,GND*%
X116600000Y-82750000D03*
%TD*%
D12*
%TO.P,R8,1*%
%TO.N,Net-(U3-TS)*%
X111437500Y-91750000D03*
%TO.P,R8,2*%
%TO.N,GND*%
X113262500Y-91750000D03*
%TD*%
D15*
%TO.P,R18,1*%
%TO.N,+3V3*%
X122250000Y-76912500D03*
%TO.P,R18,2*%
%TO.N,Net-(D2-A)*%
X122250000Y-75087500D03*
%TD*%
%TO.P,R3,1*%
%TO.N,Net-(J1-CC2)*%
X121000000Y-83662500D03*
%TO.P,R3,2*%
%TO.N,GND*%
X121000000Y-81837500D03*
%TD*%
D18*
%TO.P,E1,ANT,SIGNAL*%
%TO.N,Net-(E1-SIGNAL)*%
X113180000Y-64780000D03*
D19*
%TO.P,E1,GND,GND*%
%TO.N,GND*%
X112000000Y-64780000D03*
%TO.P,E1,GND2,GND*%
X109800000Y-64780000D03*
%TD*%
D20*
%TO.P,U1,1,PA3/T/R1/SCL2/SCK/PWM3/CP0*%
%TO.N,VIN_DIV*%
X115800000Y-71050000D03*
%TO.P,U1,2,X0*%
%TO.N,Net-(U1-X0)*%
X115400000Y-71050000D03*
%TO.P,U1,3,X1*%
%TO.N,Net-(U1-X1)*%
X115000000Y-71050000D03*
%TO.P,U1,4,NC*%
%TO.N,unconnected-(U1-NC-Pad4)*%
X114600000Y-71050000D03*
%TO.P,U1,5,ANT*%
%TO.N,Net-(E1-SIGNAL)*%
X114200000Y-71050000D03*
D21*
%TO.P,U1,6,VDD33*%
%TO.N,+3V3*%
X113550000Y-71700000D03*
%TO.P,U1,7,VIO33*%
X113550000Y-72100000D03*
%TO.P,U1,8,V5*%
%TO.N,unconnected-(U1-V5-Pad8)*%
X113550000Y-72500000D03*
%TO.P,U1,9,PA9/SDA/R5/TMR3*%
%TO.N,SP3T_0*%
X113550000Y-72900000D03*
%TO.P,U1,10,PA8/SCL/T5/PWM5/RST*%
%TO.N,SP3T_1*%
X113550000Y-73300000D03*
D20*
%TO.P,U1,11,PA0/UDM/R2/T3/SCL1*%
%TO.N,SWDIO*%
X114200000Y-73950000D03*
%TO.P,U1,12,PA1/UDP/R3/T2/SDA1*%
%TO.N,SWCLK*%
X114600000Y-73950000D03*
%TO.P,U1,13,PA4/SCS/PWM4/TMR2*%
%TO.N,XSHUT*%
X115000000Y-73950000D03*
%TO.P,U1,14,PA5/SCK/SCL3*%
%TO.N,ToF_SCL*%
X115400000Y-73950000D03*
%TO.P,U1,15,PA6/MISO/R4/SDA3*%
%TO.N,ToF_SDA*%
X115800000Y-73950000D03*
D21*
%TO.P,U1,16,PA7/MOSI/T4/PWM1/TMR/RST_/CP1*%
%TO.N,DEBUG_TX*%
X116450000Y-73300000D03*
%TO.P,U1,17,PA10/R6/T7*%
%TO.N,EXT_TRIG*%
X116450000Y-72900000D03*
%TO.P,U1,18,PA11/R7/T6*%
%TO.N,ToF_INT*%
X116450000Y-72500000D03*
%TO.P,U1,19,NC*%
%TO.N,unconnected-(U1-NC-Pad19)*%
X116450000Y-72100000D03*
%TO.P,U1,20,PA2/R/T1/SDA2/SCS_/PWM2/TMR1/CN*%
%TO.N,Net-(U1-PA2{slash}R{slash}T1{slash}SDA2{slash}SCS_{slash}PWM2{slash}TMR1{slash}CN)*%
X116450000Y-71700000D03*
D22*
%TO.P,U1,21,EP*%
%TO.N,GND*%
X115000000Y-72500000D03*
%TD*%
D23*
%TO.P,D2,1,K*%
%TO.N,ToF_INT*%
X120250000Y-76937500D03*
%TO.P,D2,2,A*%
%TO.N,Net-(D2-A)*%
X120250000Y-75062500D03*
%TD*%
D24*
%TO.P,C7,1*%
%TO.N,VIN_DIV*%
X120500000Y-68200000D03*
%TO.P,C7,2*%
%TO.N,GND*%
X120500000Y-66300000D03*
%TD*%
D25*
%TO.P,U2,1,GND*%
%TO.N,GND*%
X110200000Y-76962500D03*
%TO.P,U2,2,VO*%
%TO.N,+3V3*%
X108300000Y-76962500D03*
%TO.P,U2,3,VI*%
%TO.N,Net-(SW1-A)*%
X109250000Y-79237500D03*
%TD*%
D11*
%TO.P,R11,1*%
%TO.N,ToF_SCL*%
X115912500Y-79750000D03*
%TO.P,R11,2*%
%TO.N,+3V3*%
X114087500Y-79750000D03*
%TD*%
D26*
%TO.P,Y1,1,1*%
%TO.N,Net-(U1-X1)*%
X115650000Y-67850000D03*
%TO.P,Y1,2,2*%
%TO.N,GND*%
X117850000Y-67850000D03*
%TO.P,Y1,3,3*%
%TO.N,Net-(U1-X0)*%
X117850000Y-66150000D03*
%TO.P,Y1,4,4*%
%TO.N,GND*%
X115650000Y-66150000D03*
%TD*%
D12*
%TO.P,R10,1*%
%TO.N,GND*%
X107837500Y-91000000D03*
%TO.P,R10,2*%
%TO.N,Net-(U3-ISET)*%
X109662500Y-91000000D03*
%TD*%
D27*
%TO.P,C6,1*%
%TO.N,+3V3*%
X119000000Y-81800000D03*
%TO.P,C6,2*%
%TO.N,GND*%
X119000000Y-83700000D03*
%TD*%
D28*
%TO.P,U3,1,TS*%
%TO.N,Net-(U3-TS)*%
X113750000Y-89437500D03*
%TO.P,U3,2,BAT*%
%TO.N,+BATT*%
X114250000Y-89437500D03*
%TO.P,U3,3,BAT*%
X114750000Y-89437500D03*
%TO.P,U3,4,~{CE}*%
%TO.N,GND*%
X115250000Y-89437500D03*
D29*
%TO.P,U3,5,EN2*%
X115937500Y-88750000D03*
%TO.P,U3,6,EN1*%
%TO.N,+5V*%
X115937500Y-88250000D03*
%TO.P,U3,7,~{PGOOD}*%
%TO.N,unconnected-(U3-~{PGOOD}-Pad7)*%
X115937500Y-87750000D03*
%TO.P,U3,8,VSS*%
%TO.N,GND*%
X115937500Y-87250000D03*
D28*
%TO.P,U3,9,~{CHG}*%
%TO.N,Net-(D3-K)*%
X115250000Y-86562500D03*
%TO.P,U3,10,OUT*%
%TO.N,PWR_MGMT_OUT*%
X114750000Y-86562500D03*
%TO.P,U3,11,OUT*%
X114250000Y-86562500D03*
%TO.P,U3,12,ILIM*%
%TO.N,Net-(U3-ILIM)*%
X113750000Y-86562500D03*
D29*
%TO.P,U3,13,IN*%
%TO.N,+5V*%
X113062500Y-87250000D03*
%TO.P,U3,14,TMR*%
%TO.N,Net-(U3-TMR)*%
X113062500Y-87750000D03*
%TO.P,U3,15,SYSOFF*%
%TO.N,GND*%
X113062500Y-88250000D03*
%TO.P,U3,16,ISET*%
%TO.N,Net-(U3-ISET)*%
X113062500Y-88750000D03*
D30*
%TO.P,U3,17,VSS*%
%TO.N,GND*%
X114500000Y-88000000D03*
%TD*%
D31*
%TO.P,C5,1*%
%TO.N,+BATT*%
X111550000Y-96250000D03*
%TO.P,C5,2*%
%TO.N,GND*%
X113450000Y-96250000D03*
%TD*%
D15*
%TO.P,R16,1*%
%TO.N,GND*%
X120250000Y-72612500D03*
%TO.P,R16,2*%
%TO.N,VIN_DIV*%
X120250000Y-70787500D03*
%TD*%
D11*
%TO.P,R12,1*%
%TO.N,ToF_SDA*%
X115412500Y-77500000D03*
%TO.P,R12,2*%
%TO.N,+3V3*%
X113587500Y-77500000D03*
%TD*%
D32*
%TO.P,SW4,1,1*%
%TO.N,VIN_DIV*%
X127250000Y-73800000D03*
%TO.P,SW4,2,2*%
%TO.N,GND*%
X127250000Y-77200000D03*
D33*
%TO.P,SW4,3,gnd*%
X128850000Y-73325000D03*
X128850000Y-77675000D03*
%TD*%
D31*
%TO.P,C4,1*%
%TO.N,+3V3*%
X108800000Y-74750000D03*
%TO.P,C4,2*%
%TO.N,GND*%
X110700000Y-74750000D03*
%TD*%
%TO.P,C3,1*%
%TO.N,Net-(SW1-A)*%
X108300000Y-81700000D03*
%TO.P,C3,2*%
%TO.N,GND*%
X110200000Y-81700000D03*
%TD*%
D12*
%TO.P,R17,1*%
%TO.N,Net-(D3-A)*%
X106087500Y-96500000D03*
%TO.P,R17,2*%
%TO.N,+BATT*%
X107912500Y-96500000D03*
%TD*%
D34*
%TO.P,D1,1,K*%
%TO.N,GND*%
X123062500Y-66500000D03*
%TO.P,D1,2,A*%
%TO.N,Net-(D1-A)*%
X124937500Y-66500000D03*
%TD*%
D35*
%TO.P,C1,1*%
%TO.N,+3V3*%
X110700000Y-72500000D03*
%TO.P,C1,2*%
%TO.N,GND*%
X108800000Y-72500000D03*
%TD*%
D36*
%TO.P,J1,A1,GND*%
%TO.N,GND*%
X116500000Y-91955000D03*
%TO.P,J1,A4,VBUS*%
%TO.N,+5V*%
X117300000Y-91955000D03*
D37*
%TO.P,J1,A5,CC1*%
%TO.N,Net-(J1-CC1)*%
X118500000Y-91955000D03*
%TO.P,J1,A6,D+*%
%TO.N,SWCLK*%
X119500000Y-91955000D03*
%TO.P,J1,A7,D-*%
%TO.N,SWDIO*%
X120000000Y-91955000D03*
%TO.P,J1,A8,SBU1*%
%TO.N,unconnected-(J1-SBU1-PadA8)*%
X121000000Y-91955000D03*
D36*
%TO.P,J1,A9,VBUS*%
%TO.N,+5V*%
X122200000Y-91955000D03*
%TO.P,J1,A12,GND*%
%TO.N,GND*%
X123000000Y-91955000D03*
%TO.P,J1,B1,GND*%
X123000000Y-91955000D03*
%TO.P,J1,B4,VBUS*%
%TO.N,+5V*%
X122200000Y-91955000D03*
D37*
%TO.P,J1,B5,CC2*%
%TO.N,Net-(J1-CC2)*%
X121500000Y-91955000D03*
%TO.P,J1,B6,D+*%
%TO.N,SWCLK*%
X120500000Y-91955000D03*
%TO.P,J1,B7,D-*%
%TO.N,SWDIO*%
X119000000Y-91955000D03*
%TO.P,J1,B8,SBU2*%
%TO.N,unconnected-(J1-SBU2-PadB8)*%
X118000000Y-91955000D03*
D36*
%TO.P,J1,B9,VBUS*%
%TO.N,+5V*%
X117300000Y-91955000D03*
%TO.P,J1,B12,GND*%
%TO.N,GND*%
X116500000Y-91955000D03*
D38*
%TO.P,J1,S1,SHIELD*%
X115430000Y-92870000D03*
D39*
X115430000Y-97050000D03*
D38*
X124070000Y-92870000D03*
D39*
X124070000Y-97050000D03*
%TD*%
D40*
%TO.P,SW1,1,A*%
%TO.N,Net-(SW1-A)*%
X104250000Y-84960000D03*
%TO.P,SW1,2,B*%
%TO.N,PWR_MGMT_OUT*%
X104250000Y-87460000D03*
%TO.P,SW1,3,C*%
%TO.N,unconnected-(SW1-C-Pad3)*%
X104250000Y-89960000D03*
%TD*%
D12*
%TO.P,R6,1*%
%TO.N,GND*%
X107837500Y-89000000D03*
%TO.P,R6,2*%
%TO.N,Net-(U3-TMR)*%
X109662500Y-89000000D03*
%TD*%
D41*
%TO.P,J3,1,Pin_1*%
%TO.N,+3V3*%
X125925000Y-84500000D03*
%TO.P,J3,2,Pin_2*%
%TO.N,EXT_TRIG*%
X125925000Y-85500000D03*
%TO.P,J3,3,Pin_3*%
%TO.N,DEBUG_TX*%
X125925000Y-86500000D03*
%TO.P,J3,4,Pin_4*%
%TO.N,unconnected-(J3-Pin_4-Pad4)*%
X125925000Y-87500000D03*
%TO.P,J3,5,Pin_5*%
%TO.N,unconnected-(J3-Pin_5-Pad5)*%
X125925000Y-88500000D03*
%TO.P,J3,6,Pin_6*%
%TO.N,+5V*%
X125925000Y-89500000D03*
%TO.P,J3,7,Pin_7*%
%TO.N,GND*%
X125925000Y-90500000D03*
%TO.P,J3,8,Pin_8*%
X125925000Y-91500000D03*
%TO.P,J3,9,Pin_9*%
%TO.N,SWDIO*%
X125925000Y-92500000D03*
%TO.P,J3,10,Pin_10*%
%TO.N,SWCLK*%
X125925000Y-93500000D03*
D42*
%TO.P,J3,GND,GND*%
%TO.N,GND*%
X128250000Y-83250000D03*
X128250000Y-94750000D03*
%TD*%
D43*
%TO.P,SW3,1,1*%
%TO.N,Net-(SW3-Pad1)*%
X105675000Y-80000000D03*
%TO.P,SW3,2,2*%
%TO.N,+3V3*%
X105675000Y-78000000D03*
%TO.P,SW3,3,3*%
%TO.N,SP3T_1*%
X105675000Y-74000000D03*
%TO.P,SW3,4,4*%
%TO.N,SP3T_0*%
X105675000Y-72000000D03*
%TO.P,SW3,5,5*%
%TO.N,Net-(SW3-Pad1)*%
X103375000Y-80000000D03*
%TO.P,SW3,6,6*%
%TO.N,+3V3*%
X103375000Y-78000000D03*
%TO.P,SW3,7,7*%
%TO.N,SP3T_1*%
X103375000Y-74000000D03*
%TO.P,SW3,8,8*%
%TO.N,SP3T_0*%
X103375000Y-72000000D03*
%TD*%
D33*
%TO.P,SW2,3,gnd*%
%TO.N,GND*%
X128850000Y-93175000D03*
X128850000Y-88825000D03*
%TD*%
D44*
%TO.N,GND*%
X114100000Y-67500000D03*
X112250000Y-68500000D03*
X107250000Y-83500000D03*
X112250000Y-66250000D03*
X112250000Y-69250000D03*
X114100000Y-68250000D03*
X114100000Y-66000000D03*
X114100000Y-65250000D03*
X112250000Y-67750000D03*
X112250000Y-65500000D03*
X103750000Y-82500000D03*
X120000000Y-86000000D03*
X105500000Y-76000000D03*
X113400000Y-70700000D03*
X114100000Y-66750000D03*
X121250000Y-74000000D03*
X112250000Y-67000000D03*
X112750000Y-70000000D03*
X115000000Y-72500000D03*
X103000000Y-93250000D03*
X115000000Y-82800000D03*
X114400000Y-69000000D03*
%TO.N,+5V*%
X117700000Y-94500000D03*
X121300000Y-93800000D03*
%TO.N,+BATT*%
X109000000Y-96500000D03*
%TO.N,SWCLK*%
X127300000Y-93500000D03*
%TO.N,SWDIO*%
X127500000Y-91000000D03*
X120750000Y-95500000D03*
%TO.N,ToF_INT*%
X120250000Y-78250000D03*
X113000000Y-81000000D03*
%TO.N,ToF_SCL*%
X115500000Y-75750000D03*
X117000000Y-77500000D03*
%TO.N,SP3T_0*%
X112250000Y-72900000D03*
X104500000Y-72000000D03*
%TO.N,SP3T_1*%
X112000000Y-74000000D03*
X104500000Y-74000000D03*
%TO.N,Net-(SW1-A)*%
X123250000Y-73900000D03*
X106800000Y-85000000D03*
%TO.N,Net-(D3-K)*%
X116500000Y-86250000D03*
X110500000Y-99200000D03*
%TO.N,+3V3*%
X127700000Y-84700000D03*
X122250000Y-78250000D03*
X113250000Y-78750000D03*
X119000000Y-80500000D03*
X109300000Y-76100000D03*
%TD*%
D45*
%TO.N,GND*%
X119137500Y-83700000D02*
X121000000Y-81837500D01*
D46*
X110700000Y-74750000D02*
X110650000Y-74750000D01*
X115250000Y-89437500D02*
X115250000Y-88750000D01*
X110650000Y-74750000D02*
X110200000Y-75200000D01*
D47*
X119000000Y-83700000D02*
X119137500Y-83700000D01*
D48*
X113062500Y-88250000D02*
X114250000Y-88250000D01*
D46*
X115937500Y-87250000D02*
X115887500Y-87300000D01*
X115200000Y-88700000D02*
X114500000Y-88000000D01*
D48*
X114250000Y-88250000D02*
X114500000Y-88000000D01*
D46*
X115887500Y-87300000D02*
X115200000Y-87300000D01*
D48*
X111700000Y-98800000D02*
X111587500Y-98800000D01*
D49*
X109800000Y-64780000D02*
X109800000Y-65661270D01*
D46*
X115937500Y-88750000D02*
X115887500Y-88700000D01*
X110200000Y-75200000D02*
X110200000Y-76962500D01*
D48*
X113450000Y-96250000D02*
X113450000Y-97050000D01*
D49*
X112000000Y-64780000D02*
X112000000Y-66000000D01*
D48*
X113450000Y-97050000D02*
X111700000Y-98800000D01*
D46*
X115200000Y-87300000D02*
X114500000Y-88000000D01*
X115887500Y-88700000D02*
X115200000Y-88700000D01*
D47*
X113450000Y-96250000D02*
X114630000Y-96250000D01*
D46*
X115250000Y-88750000D02*
X114500000Y-88000000D01*
D47*
X114630000Y-96250000D02*
X115430000Y-97050000D01*
D48*
%TO.N,PWR_MGMT_OUT*%
X108750000Y-85100000D02*
X109100000Y-84750000D01*
X108750000Y-87000000D02*
X108750000Y-85100000D01*
X114250000Y-86562500D02*
X114250000Y-85500000D01*
X108290000Y-87460000D02*
X108750000Y-87000000D01*
X110350000Y-84750000D02*
X111100000Y-85500000D01*
X114650000Y-85500000D02*
X114750000Y-85600000D01*
X111100000Y-85500000D02*
X114250000Y-85500000D01*
X114750000Y-85600000D02*
X114750000Y-86562500D01*
X114250000Y-85500000D02*
X114650000Y-85500000D01*
X109100000Y-84750000D02*
X110350000Y-84750000D01*
X104250000Y-87460000D02*
X108290000Y-87460000D01*
%TO.N,+5V*%
X117300000Y-92885406D02*
X117700000Y-93285406D01*
X122200000Y-90500000D02*
X123200000Y-89500000D01*
X123200000Y-89500000D02*
X125925000Y-89500000D01*
X117300000Y-88600000D02*
X116950000Y-88250000D01*
X122200000Y-91955000D02*
X122200000Y-90500000D01*
X112662500Y-94000000D02*
X112500000Y-94162500D01*
X122200000Y-91955000D02*
X122200000Y-92800000D01*
X113162500Y-94500000D02*
X112662500Y-94000000D01*
X112500000Y-94162500D02*
X112500000Y-97300000D01*
X107000000Y-95150000D02*
X108750000Y-93400000D01*
X121300000Y-93700000D02*
X121300000Y-93800000D01*
X117700000Y-94500000D02*
X113162500Y-94500000D01*
X117700000Y-93285406D02*
X117700000Y-94500000D01*
X116950000Y-88250000D02*
X115937500Y-88250000D01*
X109850000Y-87250000D02*
X113062500Y-87250000D01*
X108750000Y-88350000D02*
X109850000Y-87250000D01*
X108750000Y-93400000D02*
X108750000Y-88350000D01*
X122200000Y-92800000D02*
X121300000Y-93700000D01*
X112150000Y-97650000D02*
X107250000Y-97650000D01*
X107250000Y-97650000D02*
X107000000Y-97400000D01*
X112500000Y-97300000D02*
X112150000Y-97650000D01*
X117300000Y-91955000D02*
X117300000Y-92885406D01*
X117300000Y-91955000D02*
X117300000Y-88600000D01*
X107000000Y-97400000D02*
X107000000Y-95150000D01*
%TO.N,Net-(J1-CC1)*%
X118500000Y-96800000D02*
X118500000Y-91955000D01*
X113412500Y-98800000D02*
X116500000Y-98800000D01*
X116500000Y-98800000D02*
X118500000Y-96800000D01*
%TO.N,Net-(J1-CC2)*%
X121500000Y-84162500D02*
X121500000Y-91955000D01*
X121000000Y-83662500D02*
X121500000Y-84162500D01*
%TO.N,Net-(U3-TMR)*%
X109662500Y-89000000D02*
X110912500Y-87750000D01*
X110912500Y-87750000D02*
X113062500Y-87750000D01*
%TO.N,Net-(U3-TS)*%
X110837500Y-92350000D02*
X111437500Y-91750000D01*
X110837500Y-94000000D02*
X110837500Y-92350000D01*
X112300000Y-89800000D02*
X111437500Y-90662500D01*
X113750000Y-89437500D02*
X113387500Y-89800000D01*
X113387500Y-89800000D02*
X112300000Y-89800000D01*
X111437500Y-90662500D02*
X111437500Y-91750000D01*
%TO.N,Net-(U3-ILIM)*%
X109662500Y-86000000D02*
X113187500Y-86000000D01*
X113187500Y-86000000D02*
X113750000Y-86562500D01*
%TO.N,Net-(U3-ISET)*%
X109662500Y-90987500D02*
X111900000Y-88750000D01*
X109662500Y-91000000D02*
X109662500Y-90987500D01*
X111900000Y-88750000D02*
X113062500Y-88750000D01*
%TO.N,Net-(U1-X1)*%
X115150000Y-68350000D02*
X115400000Y-68350000D01*
X115000000Y-71050000D02*
X115000000Y-68500000D01*
X115000000Y-68500000D02*
X115150000Y-68350000D01*
%TO.N,Net-(U1-X0)*%
X116750000Y-67250000D02*
X116750000Y-68750000D01*
X117350000Y-66650000D02*
X116750000Y-67250000D01*
X117600000Y-66650000D02*
X117350000Y-66650000D01*
X116750000Y-68750000D02*
X115400000Y-70100000D01*
X115400000Y-70100000D02*
X115400000Y-71050000D01*
D50*
%TO.N,Net-(E1-SIGNAL)*%
X113180000Y-64780000D02*
X113180000Y-69180000D01*
D48*
X114200000Y-71050000D02*
X114200000Y-70200000D01*
D50*
X113180000Y-69180000D02*
X114000000Y-70000000D01*
D48*
X114200000Y-70200000D02*
X114000000Y-70000000D01*
%TO.N,+BATT*%
X114600000Y-90550000D02*
X114750000Y-90400000D01*
X111750000Y-96050000D02*
X111750000Y-93200000D01*
X112750000Y-90550000D02*
X114250000Y-90550000D01*
X111550000Y-96250000D02*
X111750000Y-96050000D01*
X112350000Y-90950000D02*
X112750000Y-90550000D01*
X107912500Y-96500000D02*
X109000000Y-96500000D01*
X114250000Y-90550000D02*
X114600000Y-90550000D01*
X114250000Y-89437500D02*
X114250000Y-90550000D01*
X112350000Y-92600000D02*
X112350000Y-90950000D01*
X109000000Y-96500000D02*
X111300000Y-96500000D01*
X114750000Y-90400000D02*
X114750000Y-89437500D01*
X111750000Y-93200000D02*
X112350000Y-92600000D01*
X111300000Y-96500000D02*
X111550000Y-96250000D01*
%TO.N,SWCLK*%
X114600000Y-73950000D02*
X114600000Y-74650000D01*
X119700000Y-89900000D02*
X120500000Y-89900000D01*
X121300000Y-94900000D02*
X124100000Y-94900000D01*
X111750000Y-84250000D02*
X112000000Y-84500000D01*
X117000000Y-84500000D02*
X120500000Y-88000000D01*
X111750000Y-76565686D02*
X111750000Y-84250000D01*
X120500000Y-94100000D02*
X121300000Y-94900000D01*
X125925000Y-93500000D02*
X127300000Y-93500000D01*
X125500000Y-93500000D02*
X125925000Y-93500000D01*
X112000000Y-84500000D02*
X117000000Y-84500000D01*
X119500000Y-91955000D02*
X119500000Y-90100000D01*
X120500000Y-89900000D02*
X120500000Y-91955000D01*
X113315686Y-75000000D02*
X111750000Y-76565686D01*
X114600000Y-74650000D02*
X114250000Y-75000000D01*
X120500000Y-88000000D02*
X120500000Y-89900000D01*
X120500000Y-91955000D02*
X120500000Y-94100000D01*
X124100000Y-94900000D02*
X125500000Y-93500000D01*
X119500000Y-90100000D02*
X119700000Y-89900000D01*
X114250000Y-75000000D02*
X113315686Y-75000000D01*
X125750000Y-93500000D02*
X125925000Y-93500000D01*
%TO.N,SWDIO*%
X113550000Y-73950000D02*
X111200000Y-76300000D01*
X120000000Y-94600000D02*
X120000000Y-91955000D01*
X125500000Y-92500000D02*
X125925000Y-92500000D01*
X126750000Y-92500000D02*
X125925000Y-92500000D01*
X111200000Y-76300000D02*
X111200000Y-84450000D01*
X120000000Y-94750000D02*
X120750000Y-95500000D01*
X119000000Y-91955000D02*
X119000000Y-94200000D01*
X111750000Y-85000000D02*
X116500000Y-85000000D01*
X127500000Y-91750000D02*
X126750000Y-92500000D01*
X127500000Y-91000000D02*
X127500000Y-91750000D01*
X119000000Y-94200000D02*
X119400000Y-94600000D01*
X120000000Y-94600000D02*
X120000000Y-94750000D01*
X119400000Y-94600000D02*
X120000000Y-94600000D01*
X119000000Y-87500000D02*
X119000000Y-91955000D01*
X116500000Y-85000000D02*
X119000000Y-87500000D01*
X114200000Y-73950000D02*
X113550000Y-73950000D01*
X111200000Y-84450000D02*
X111750000Y-85000000D01*
%TO.N,ToF_INT*%
X119937500Y-76937500D02*
X120250000Y-76937500D01*
X119000000Y-74000000D02*
X119000000Y-76000000D01*
X117500000Y-72500000D02*
X119000000Y-74000000D01*
X119000000Y-76000000D02*
X119937500Y-76937500D01*
X113400000Y-81950000D02*
X113400000Y-81400000D01*
X113400000Y-81400000D02*
X113000000Y-81000000D01*
X116450000Y-72500000D02*
X117500000Y-72500000D01*
X120250000Y-76937500D02*
X120250000Y-78250000D01*
%TO.N,ToF_SCL*%
X115912500Y-81837500D02*
X115912500Y-79750000D01*
X117000000Y-78662500D02*
X115912500Y-79750000D01*
X117000000Y-77500000D02*
X117000000Y-78662500D01*
X115400000Y-75650000D02*
X115400000Y-73950000D01*
X115800000Y-81950000D02*
X115912500Y-81837500D01*
X115500000Y-75750000D02*
X115400000Y-75650000D01*
%TO.N,ToF_SDA*%
X115000000Y-81950000D02*
X115000000Y-77912500D01*
X115000000Y-77912500D02*
X115412500Y-77500000D01*
X116500000Y-74650000D02*
X115800000Y-73950000D01*
X115412500Y-77500000D02*
X116500000Y-76412500D01*
X116500000Y-76412500D02*
X116500000Y-74650000D01*
%TO.N,XSHUT*%
X113750000Y-75500000D02*
X114500000Y-75500000D01*
X112250000Y-83500000D02*
X112250000Y-77000000D01*
X114500000Y-75500000D02*
X115000000Y-75000000D01*
X115000000Y-75000000D02*
X115000000Y-73950000D01*
X112300000Y-83550000D02*
X112250000Y-83500000D01*
X112250000Y-77000000D02*
X113750000Y-75500000D01*
X113400000Y-83550000D02*
X112300000Y-83550000D01*
%TO.N,VIN_DIV*%
X126350000Y-71700000D02*
X127500000Y-72850000D01*
X123565686Y-71700000D02*
X126350000Y-71700000D01*
X120500000Y-68200000D02*
X121250000Y-68950000D01*
X122653186Y-70787500D02*
X123565686Y-71700000D01*
X122250000Y-70787500D02*
X122653186Y-70787500D01*
X115800000Y-71050000D02*
X119987500Y-71050000D01*
X119987500Y-71050000D02*
X120250000Y-70787500D01*
X127500000Y-73550000D02*
X127250000Y-73800000D01*
X120250000Y-70787500D02*
X121250000Y-70787500D01*
X127500000Y-72850000D02*
X127500000Y-73550000D01*
X121250000Y-70787500D02*
X122250000Y-70787500D01*
X121250000Y-68950000D02*
X121250000Y-70787500D01*
D51*
%TO.N,SP3T_0*%
X104500000Y-72000000D02*
X106275000Y-72000000D01*
D48*
X103375000Y-72000000D02*
X104500000Y-72000000D01*
X112250000Y-72900000D02*
X113550000Y-72900000D01*
D51*
X102925000Y-72000000D02*
X104500000Y-72000000D01*
%TO.N,SP3T_1*%
X104500000Y-74000000D02*
X106275000Y-74000000D01*
D48*
X112000000Y-74000000D02*
X112500000Y-74000000D01*
X113200000Y-73300000D02*
X113550000Y-73300000D01*
X103375000Y-74000000D02*
X104500000Y-74000000D01*
X112500000Y-74000000D02*
X113200000Y-73300000D01*
D51*
X102925000Y-74000000D02*
X104500000Y-74000000D01*
D48*
%TO.N,DEBUG_TX*%
X124000000Y-82000000D02*
X124000000Y-85700000D01*
X118000000Y-75000000D02*
X118000000Y-77750000D01*
X124800000Y-86500000D02*
X125925000Y-86500000D01*
X116450000Y-73450000D02*
X118000000Y-75000000D01*
X120000000Y-79750000D02*
X121750000Y-79750000D01*
X118000000Y-77750000D02*
X120000000Y-79750000D01*
X121750000Y-79750000D02*
X124000000Y-82000000D01*
X124000000Y-85700000D02*
X124800000Y-86500000D01*
X116450000Y-73300000D02*
X116450000Y-73450000D01*
%TO.N,EXT_TRIG*%
X124500000Y-81750000D02*
X124500000Y-85200000D01*
X124500000Y-85200000D02*
X124800000Y-85500000D01*
X118500000Y-77500000D02*
X120250000Y-79250000D01*
X116450000Y-72900000D02*
X117150000Y-72900000D01*
X122000000Y-79250000D02*
X124500000Y-81750000D01*
X117150000Y-72900000D02*
X118500000Y-74250000D01*
X118500000Y-74250000D02*
X118500000Y-77500000D01*
X120250000Y-79250000D02*
X122000000Y-79250000D01*
X124800000Y-85500000D02*
X125925000Y-85500000D01*
%TO.N,Net-(D2-A)*%
X122225000Y-75062500D02*
X122250000Y-75087500D01*
X120250000Y-75062500D02*
X122225000Y-75062500D01*
%TO.N,Net-(SW1-A)*%
X107050000Y-81700000D02*
X104250000Y-84500000D01*
X108300000Y-80200000D02*
X109250000Y-79250000D01*
X108300000Y-81700000D02*
X107050000Y-81700000D01*
X109250000Y-79250000D02*
X109250000Y-79237500D01*
X104290000Y-85000000D02*
X104250000Y-84960000D01*
X123250000Y-73900000D02*
X123150000Y-73900000D01*
X108300000Y-81700000D02*
X108300000Y-80200000D01*
X104250000Y-84500000D02*
X104250000Y-84960000D01*
X123150000Y-73900000D02*
X122250000Y-73000000D01*
X106800000Y-85000000D02*
X104290000Y-85000000D01*
X122250000Y-73000000D02*
X122250000Y-72612500D01*
%TO.N,Net-(D3-A)*%
X106087500Y-98775000D02*
X106062500Y-98800000D01*
X106087500Y-96500000D02*
X106087500Y-98775000D01*
%TO.N,Net-(D3-K)*%
X116500000Y-86250000D02*
X116187500Y-86562500D01*
X110500000Y-99200000D02*
X110100000Y-98800000D01*
X110100000Y-98800000D02*
X107937500Y-98800000D01*
X116187500Y-86562500D02*
X115250000Y-86562500D01*
%TO.N,Net-(D1-A)*%
X124937500Y-66500000D02*
X124750000Y-66687500D01*
X124750000Y-66687500D02*
X124750000Y-70287500D01*
X124750000Y-70287500D02*
X124250000Y-70787500D01*
%TO.N,Net-(U1-PA2{slash}R{slash}T1{slash}SDA2{slash}SCS_{slash}PWM2{slash}TMR1{slash}CN)*%
X123812500Y-72612500D02*
X124250000Y-72612500D01*
X122900000Y-71700000D02*
X123812500Y-72612500D01*
X116450000Y-71700000D02*
X122900000Y-71700000D01*
D51*
%TO.N,Net-(SW3-Pad1)*%
X103375000Y-80000000D02*
X105500000Y-80000000D01*
D48*
%TO.N,+3V3*%
X125925000Y-81925000D02*
X125925000Y-84500000D01*
X109300000Y-75250000D02*
X109300000Y-76100000D01*
X113587500Y-78412500D02*
X113587500Y-77500000D01*
X110950000Y-72500000D02*
X111350000Y-72100000D01*
X116740000Y-83425000D02*
X117325000Y-83425000D01*
X125925000Y-84500000D02*
X127500000Y-84500000D01*
X118950000Y-81800000D02*
X119000000Y-81800000D01*
X110700000Y-72500000D02*
X110950000Y-72500000D01*
X110700000Y-71950000D02*
X110700000Y-72500000D01*
X108800000Y-74700000D02*
X110700000Y-72800000D01*
X116750000Y-81800000D02*
X116600000Y-81950000D01*
X117325000Y-83425000D02*
X118950000Y-81800000D01*
X122250000Y-78250000D02*
X125925000Y-81925000D01*
D51*
X102925000Y-78000000D02*
X106275000Y-78000000D01*
D48*
X119000000Y-81800000D02*
X116750000Y-81800000D01*
X108300000Y-75500000D02*
X108800000Y-75000000D01*
X108800000Y-74750000D02*
X109300000Y-75250000D01*
X113250000Y-78750000D02*
X113587500Y-78412500D01*
X110950000Y-71700000D02*
X110700000Y-71950000D01*
X119000000Y-80500000D02*
X119000000Y-81800000D01*
X111350000Y-72100000D02*
X113550000Y-72100000D01*
X114087500Y-79750000D02*
X114087500Y-79587500D01*
X106275000Y-78000000D02*
X107262500Y-78000000D01*
X114087500Y-79587500D02*
X113250000Y-78750000D01*
X107262500Y-78000000D02*
X108300000Y-76962500D01*
X122250000Y-78250000D02*
X122250000Y-76912500D01*
X108300000Y-76962500D02*
X108300000Y-75500000D01*
X110700000Y-72800000D02*
X110700000Y-72500000D01*
X108800000Y-74750000D02*
X108800000Y-74700000D01*
X113550000Y-71700000D02*
X110950000Y-71700000D01*
X108800000Y-75000000D02*
X108800000Y-74750000D01*
X127500000Y-84500000D02*
X127700000Y-84700000D01*
%TD*%
%TA.AperFunction,Conductor*%
%TO.N,GND*%
G36*
X109098382Y-65056999D02*
G01*
X109138063Y-65139396D01*
X109138064Y-65139397D01*
X109209567Y-65196419D01*
X109298730Y-65216770D01*
X109298733Y-65216770D01*
X110301269Y-65216770D01*
X110301270Y-65216770D01*
X110346998Y-65211618D01*
X110429397Y-65171936D01*
X110486419Y-65100433D01*
X110506770Y-65011270D01*
X111293230Y-65011270D01*
X111298382Y-65056999D01*
X111338063Y-65139396D01*
X111338064Y-65139397D01*
X111409567Y-65196419D01*
X111498730Y-65216770D01*
X111498733Y-65216770D01*
X112501120Y-65216770D01*
X112500000Y-66750000D01*
X108250000Y-66750000D01*
X108250000Y-65011270D01*
X109093230Y-65011270D01*
X109098382Y-65056999D01*
G37*
%TD.AperFunction*%
%TD*%
%TA.AperFunction,Conductor*%
%TO.N,GND*%
G36*
X106971516Y-87880185D02*
G01*
X107017271Y-87932989D01*
X107027215Y-88002147D01*
X106998190Y-88065703D01*
X106992158Y-88072181D01*
X106982684Y-88081654D01*
X106890643Y-88230875D01*
X106890641Y-88230880D01*
X106835494Y-88397302D01*
X106835493Y-88397309D01*
X106825000Y-88500013D01*
X106825000Y-88750000D01*
X107713500Y-88750000D01*
X107780539Y-88769685D01*
X107826294Y-88822489D01*
X107837500Y-88874000D01*
X107837500Y-89000000D01*
X107963500Y-89000000D01*
X108030539Y-89019685D01*
X108076294Y-89072489D01*
X108087500Y-89124000D01*
X108087500Y-92199999D01*
X108149972Y-92199999D01*
X108149984Y-92199998D01*
X108212897Y-92193571D01*
X108281590Y-92206340D01*
X108332475Y-92254221D01*
X108349500Y-92316929D01*
X108349500Y-93182745D01*
X108329815Y-93249784D01*
X108313181Y-93270426D01*
X106679522Y-94904084D01*
X106679520Y-94904087D01*
X106626793Y-94995412D01*
X106610937Y-95054588D01*
X106610937Y-95054589D01*
X106610936Y-95054588D01*
X106599500Y-95097269D01*
X106599500Y-95384503D01*
X106579815Y-95451542D01*
X106527011Y-95497297D01*
X106460718Y-95507619D01*
X106419383Y-95502656D01*
X106393102Y-95499500D01*
X105781898Y-95499500D01*
X105742853Y-95504188D01*
X105693438Y-95510122D01*
X105552656Y-95565639D01*
X105432077Y-95657077D01*
X105340639Y-95777656D01*
X105285122Y-95918438D01*
X105282482Y-95940426D01*
X105274500Y-96006898D01*
X105274500Y-96993102D01*
X105278969Y-97030315D01*
X105285122Y-97081561D01*
X105285122Y-97081563D01*
X105285123Y-97081564D01*
X105295490Y-97107853D01*
X105340639Y-97222343D01*
X105432077Y-97342922D01*
X105552655Y-97434359D01*
X105552658Y-97434361D01*
X105608490Y-97456378D01*
X105625080Y-97469286D01*
X105644203Y-97478019D01*
X105652102Y-97490310D01*
X105663633Y-97499282D01*
X105670611Y-97519111D01*
X105681977Y-97536797D01*
X105685529Y-97561501D01*
X105686827Y-97565190D01*
X105687000Y-97571732D01*
X105687000Y-97726271D01*
X105667315Y-97793310D01*
X105614511Y-97839065D01*
X105608491Y-97841625D01*
X105549500Y-97864888D01*
X105430288Y-97955288D01*
X105339888Y-98074500D01*
X105339887Y-98074502D01*
X105285003Y-98213677D01*
X105283522Y-98226010D01*
X105274500Y-98301140D01*
X105274500Y-99298860D01*
X105275804Y-99309716D01*
X105281928Y-99360717D01*
X105270376Y-99429625D01*
X105223403Y-99481349D01*
X105158812Y-99499500D01*
X102538226Y-99499500D01*
X102471187Y-99479815D01*
X102425432Y-99427011D01*
X102415488Y-99357853D01*
X102444513Y-99294297D01*
X102499906Y-99257569D01*
X102518412Y-99251557D01*
X102707816Y-99155051D01*
X102755401Y-99120479D01*
X102879786Y-99030109D01*
X102879788Y-99030106D01*
X102879792Y-99030104D01*
X103030104Y-98879792D01*
X103030106Y-98879788D01*
X103030109Y-98879786D01*
X103155048Y-98707820D01*
X103155047Y-98707820D01*
X103155051Y-98707816D01*
X103251557Y-98518412D01*
X103317246Y-98316243D01*
X103350500Y-98106287D01*
X103350500Y-97893713D01*
X103317246Y-97683757D01*
X103251557Y-97481588D01*
X103155051Y-97292184D01*
X103155049Y-97292181D01*
X103155048Y-97292179D01*
X103030109Y-97120213D01*
X102879786Y-96969890D01*
X102707820Y-96844951D01*
X102518414Y-96748444D01*
X102518413Y-96748443D01*
X102518412Y-96748443D01*
X102316243Y-96682754D01*
X102316241Y-96682753D01*
X102316240Y-96682753D01*
X102154957Y-96657208D01*
X102106287Y-96649500D01*
X101893713Y-96649500D01*
X101845042Y-96657208D01*
X101683760Y-96682753D01*
X101481585Y-96748444D01*
X101292179Y-96844951D01*
X101120213Y-96969890D01*
X100969890Y-97120213D01*
X100844951Y-97292179D01*
X100748445Y-97481582D01*
X100748443Y-97481587D01*
X100748443Y-97481588D01*
X100742429Y-97500094D01*
X100702992Y-97557768D01*
X100638633Y-97584965D01*
X100569787Y-97573050D01*
X100518312Y-97525805D01*
X100500500Y-97461773D01*
X100500500Y-92006961D01*
X100501280Y-91993077D01*
X100505570Y-91955000D01*
X100511459Y-91902731D01*
X100517635Y-91875670D01*
X100545353Y-91796456D01*
X100557396Y-91771450D01*
X100602046Y-91700389D01*
X100619351Y-91678690D01*
X100678690Y-91619351D01*
X100700389Y-91602046D01*
X100771450Y-91557396D01*
X100796456Y-91545353D01*
X100875670Y-91517635D01*
X100902733Y-91511459D01*
X100965419Y-91504396D01*
X100993079Y-91501280D01*
X101006962Y-91500500D01*
X101107317Y-91500500D01*
X101107318Y-91500500D01*
X101110893Y-91499986D01*
X106825001Y-91499986D01*
X106835494Y-91602697D01*
X106890641Y-91769119D01*
X106890643Y-91769124D01*
X106982684Y-91918345D01*
X107106654Y-92042315D01*
X107255875Y-92134356D01*
X107255880Y-92134358D01*
X107422302Y-92189505D01*
X107422309Y-92189506D01*
X107525019Y-92199999D01*
X107587499Y-92199998D01*
X107587500Y-92199998D01*
X107587500Y-91250000D01*
X106825001Y-91250000D01*
X106825001Y-91499986D01*
X101110893Y-91499986D01*
X101289612Y-91474290D01*
X101319764Y-91469955D01*
X101319765Y-91469954D01*
X101319769Y-91469954D01*
X101525710Y-91409484D01*
X101525713Y-91409482D01*
X101525715Y-91409482D01*
X101720938Y-91320327D01*
X101720944Y-91320323D01*
X101720950Y-91320321D01*
X101901513Y-91204281D01*
X102063724Y-91063724D01*
X102138753Y-90977135D01*
X102141043Y-90974762D01*
X102168635Y-90959043D01*
X102195354Y-90941872D01*
X102198778Y-90941872D01*
X102201753Y-90940177D01*
X102233475Y-90941872D01*
X102265224Y-90941872D01*
X102269610Y-90943802D01*
X102271523Y-90943905D01*
X102274158Y-90945804D01*
X102294437Y-90954731D01*
X102295725Y-90955509D01*
X102295730Y-90955512D01*
X102452343Y-91004315D01*
X102520406Y-91010500D01*
X102520409Y-91010500D01*
X105979591Y-91010500D01*
X105979594Y-91010500D01*
X106047657Y-91004315D01*
X106204270Y-90955512D01*
X106223471Y-90943905D01*
X106344648Y-90870651D01*
X106344647Y-90870651D01*
X106344653Y-90870648D01*
X106460648Y-90754653D01*
X106545512Y-90614270D01*
X106594315Y-90457657D01*
X106600500Y-90389594D01*
X106600500Y-89661956D01*
X106620185Y-89594917D01*
X106672989Y-89549162D01*
X106742147Y-89539218D01*
X106805703Y-89568243D01*
X106842206Y-89622952D01*
X106890641Y-89769119D01*
X106890643Y-89769124D01*
X106982685Y-89918346D01*
X106986435Y-89923089D01*
X107012576Y-89987885D01*
X106999535Y-90056527D01*
X106986435Y-90076911D01*
X106982685Y-90081653D01*
X106890643Y-90230875D01*
X106890641Y-90230880D01*
X106846109Y-90365269D01*
X106825000Y-90539578D01*
X106825000Y-90750000D01*
X107587500Y-90750000D01*
X107587500Y-89250000D01*
X106825001Y-89250000D01*
X106825001Y-89387908D01*
X106805316Y-89454947D01*
X106752512Y-89500702D01*
X106683354Y-89510646D01*
X106619798Y-89481621D01*
X106582616Y-89424798D01*
X106545514Y-89305736D01*
X106545511Y-89305727D01*
X106460651Y-89165351D01*
X106460648Y-89165347D01*
X106344652Y-89049351D01*
X106344648Y-89049348D01*
X106204272Y-88964488D01*
X106204263Y-88964485D01*
X106047664Y-88915687D01*
X106047662Y-88915686D01*
X106047657Y-88915685D01*
X105979594Y-88909500D01*
X102624500Y-88909500D01*
X102615814Y-88906949D01*
X102606853Y-88908238D01*
X102582812Y-88897259D01*
X102557461Y-88889815D01*
X102551533Y-88882974D01*
X102543297Y-88879213D01*
X102529007Y-88856978D01*
X102511706Y-88837011D01*
X102509418Y-88826496D01*
X102505523Y-88820435D01*
X102500500Y-88785500D01*
X102500500Y-88634500D01*
X102520185Y-88567461D01*
X102572989Y-88521706D01*
X102624500Y-88510500D01*
X105979591Y-88510500D01*
X105979594Y-88510500D01*
X106047657Y-88504315D01*
X106204270Y-88455512D01*
X106344653Y-88370648D01*
X106460648Y-88254653D01*
X106508498Y-88175499D01*
X106545511Y-88114272D01*
X106545514Y-88114263D01*
X106546216Y-88112012D01*
X106582379Y-87995960D01*
X106596267Y-87951394D01*
X106598143Y-87951978D01*
X106608500Y-87932182D01*
X106621692Y-87903297D01*
X106624586Y-87901436D01*
X106626180Y-87898391D01*
X106653761Y-87882687D01*
X106680470Y-87865523D01*
X106685070Y-87864861D01*
X106686898Y-87863821D01*
X106715405Y-87860500D01*
X106904477Y-87860500D01*
X106971516Y-87880185D01*
G37*
%TD.AperFunction*%
%TA.AperFunction,Conductor*%
G36*
X129100000Y-94125000D02*
G01*
X129343568Y-94125000D01*
X129351303Y-94123461D01*
X129420895Y-94129685D01*
X129476074Y-94172545D01*
X129499322Y-94238434D01*
X129499500Y-94245077D01*
X129499500Y-97461773D01*
X129479815Y-97528812D01*
X129427011Y-97574567D01*
X129357853Y-97584511D01*
X129294297Y-97555486D01*
X129257570Y-97500094D01*
X129251557Y-97481588D01*
X129155051Y-97292184D01*
X129155049Y-97292181D01*
X129155048Y-97292179D01*
X129030109Y-97120213D01*
X128879786Y-96969890D01*
X128707820Y-96844951D01*
X128518414Y-96748444D01*
X128518413Y-96748443D01*
X128518412Y-96748443D01*
X128316243Y-96682754D01*
X128316241Y-96682753D01*
X128316240Y-96682753D01*
X128154957Y-96657208D01*
X128106287Y-96649500D01*
X127893713Y-96649500D01*
X127845042Y-96657208D01*
X127683760Y-96682753D01*
X127481585Y-96748444D01*
X127292179Y-96844951D01*
X127120213Y-96969890D01*
X126969890Y-97120213D01*
X126844951Y-97292179D01*
X126748444Y-97481585D01*
X126682753Y-97683760D01*
X126649500Y-97893713D01*
X126649500Y-98106286D01*
X126682013Y-98311569D01*
X126682754Y-98316243D01*
X126742869Y-98501258D01*
X126748444Y-98518414D01*
X126844951Y-98707820D01*
X126969890Y-98879786D01*
X127120213Y-99030109D01*
X127292179Y-99155048D01*
X127292181Y-99155049D01*
X127292184Y-99155051D01*
X127481588Y-99251557D01*
X127500092Y-99257569D01*
X127557768Y-99297006D01*
X127584966Y-99361365D01*
X127573051Y-99430211D01*
X127525807Y-99481687D01*
X127461774Y-99499500D01*
X114340496Y-99499500D01*
X114324750Y-99494876D01*
X114308342Y-99495259D01*
X114291916Y-99485235D01*
X114273457Y-99479815D01*
X114262710Y-99467412D01*
X114248700Y-99458863D01*
X114240300Y-99441550D01*
X114227702Y-99427011D01*
X114225081Y-99410181D01*
X114218202Y-99396001D01*
X114217380Y-99360717D01*
X114223505Y-99309713D01*
X114251041Y-99245502D01*
X114308924Y-99206369D01*
X114346620Y-99200500D01*
X116552725Y-99200500D01*
X116552727Y-99200500D01*
X116654588Y-99173207D01*
X116745913Y-99120480D01*
X118820480Y-97045913D01*
X118873207Y-96954588D01*
X118900500Y-96852727D01*
X118900500Y-96747273D01*
X118900500Y-96651504D01*
X123070000Y-96651504D01*
X123070000Y-96800000D01*
X123770000Y-96800000D01*
X123770000Y-97300000D01*
X123070000Y-97300000D01*
X123070000Y-97448495D01*
X123108427Y-97641681D01*
X123108430Y-97641693D01*
X123183807Y-97823671D01*
X123183814Y-97823684D01*
X123293248Y-97987462D01*
X123293251Y-97987466D01*
X123432533Y-98126748D01*
X123432537Y-98126751D01*
X123596315Y-98236185D01*
X123596328Y-98236192D01*
X123778308Y-98311569D01*
X123820000Y-98319862D01*
X123820000Y-97516988D01*
X123829940Y-97534205D01*
X123885795Y-97590060D01*
X123954204Y-97629556D01*
X124030504Y-97650000D01*
X124109496Y-97650000D01*
X124185796Y-97629556D01*
X124254205Y-97590060D01*
X124310060Y-97534205D01*
X124320000Y-97516988D01*
X124320000Y-98319862D01*
X124361690Y-98311569D01*
X124361692Y-98311569D01*
X124543671Y-98236192D01*
X124543684Y-98236185D01*
X124707462Y-98126751D01*
X124707466Y-98126748D01*
X124846748Y-97987466D01*
X124846751Y-97987462D01*
X124956185Y-97823684D01*
X124956192Y-97823671D01*
X125031569Y-97641693D01*
X125031572Y-97641681D01*
X125069999Y-97448495D01*
X125070000Y-97448492D01*
X125070000Y-97300000D01*
X124370000Y-97300000D01*
X124370000Y-96800000D01*
X125070000Y-96800000D01*
X125070000Y-96651508D01*
X125069999Y-96651504D01*
X125031572Y-96458318D01*
X125031569Y-96458306D01*
X124956192Y-96276328D01*
X124956185Y-96276315D01*
X124846751Y-96112537D01*
X124846748Y-96112533D01*
X124707466Y-95973251D01*
X124707462Y-95973248D01*
X124543684Y-95863814D01*
X124543671Y-95863807D01*
X124361691Y-95788429D01*
X124361683Y-95788427D01*
X124320000Y-95780135D01*
X124320000Y-96583011D01*
X124310060Y-96565795D01*
X124254205Y-96509940D01*
X124185796Y-96470444D01*
X124109496Y-96450000D01*
X124030504Y-96450000D01*
X123954204Y-96470444D01*
X123885795Y-96509940D01*
X123829940Y-96565795D01*
X123820000Y-96583011D01*
X123820000Y-95780136D01*
X123819999Y-95780135D01*
X123778316Y-95788427D01*
X123778308Y-95788429D01*
X123596328Y-95863807D01*
X123596315Y-95863814D01*
X123432537Y-95973248D01*
X123432533Y-95973251D01*
X123293251Y-96112533D01*
X123293248Y-96112537D01*
X123183814Y-96276315D01*
X123183807Y-96276328D01*
X123108430Y-96458306D01*
X123108427Y-96458318D01*
X123070000Y-96651504D01*
X118900500Y-96651504D01*
X118900500Y-94966255D01*
X118920185Y-94899216D01*
X118972989Y-94853461D01*
X119042147Y-94843517D01*
X119105703Y-94872542D01*
X119112181Y-94878574D01*
X119154087Y-94920480D01*
X119245413Y-94973207D01*
X119347273Y-95000500D01*
X119632745Y-95000500D01*
X119699784Y-95020185D01*
X119720426Y-95036819D01*
X120113181Y-95429574D01*
X120146666Y-95490897D01*
X120149500Y-95517255D01*
X120149500Y-95579057D01*
X120170406Y-95657077D01*
X120190423Y-95731783D01*
X120190426Y-95731790D01*
X120269475Y-95868709D01*
X120269479Y-95868714D01*
X120269480Y-95868716D01*
X120381284Y-95980520D01*
X120381286Y-95980521D01*
X120381290Y-95980524D01*
X120448765Y-96019480D01*
X120518216Y-96059577D01*
X120670943Y-96100500D01*
X120670945Y-96100500D01*
X120829055Y-96100500D01*
X120829057Y-96100500D01*
X120981784Y-96059577D01*
X121118716Y-95980520D01*
X121230520Y-95868716D01*
X121309577Y-95731784D01*
X121350500Y-95579057D01*
X121350500Y-95424500D01*
X121370185Y-95357461D01*
X121422989Y-95311706D01*
X121474500Y-95300500D01*
X124152725Y-95300500D01*
X124152727Y-95300500D01*
X124254588Y-95273207D01*
X124345913Y-95220480D01*
X125429574Y-94136819D01*
X125490897Y-94103334D01*
X125517255Y-94100500D01*
X126604270Y-94100500D01*
X126634699Y-94097646D01*
X126634701Y-94097646D01*
X126698790Y-94075219D01*
X126762882Y-94052793D01*
X126826419Y-94005900D01*
X126892047Y-93981930D01*
X126960218Y-93997245D01*
X126962051Y-93998284D01*
X127068209Y-94059573D01*
X127068216Y-94059577D01*
X127220943Y-94100500D01*
X127220945Y-94100500D01*
X127379055Y-94100500D01*
X127379057Y-94100500D01*
X127531784Y-94059577D01*
X127668716Y-93980520D01*
X127707659Y-93941576D01*
X127768980Y-93908092D01*
X127838671Y-93913076D01*
X127864230Y-93926156D01*
X128000000Y-94016875D01*
X128000008Y-94016880D01*
X128172894Y-94088491D01*
X128172902Y-94088493D01*
X128356428Y-94124999D01*
X128356431Y-94125000D01*
X128600000Y-94125000D01*
X128600000Y-93375000D01*
X129100000Y-93375000D01*
X129100000Y-94125000D01*
G37*
%TD.AperFunction*%
%TA.AperFunction,Conductor*%
G36*
X113643039Y-96269685D02*
G01*
X113688794Y-96322489D01*
X113700000Y-96374000D01*
X113700000Y-97474999D01*
X113749972Y-97474999D01*
X113749986Y-97474998D01*
X113852697Y-97464505D01*
X114019119Y-97409358D01*
X114019124Y-97409356D01*
X114168345Y-97317315D01*
X114218319Y-97267342D01*
X114279642Y-97233857D01*
X114349334Y-97238841D01*
X114405267Y-97280713D01*
X114429684Y-97346177D01*
X114430000Y-97355023D01*
X114430000Y-97448495D01*
X114468427Y-97641681D01*
X114468430Y-97641693D01*
X114543807Y-97823671D01*
X114543814Y-97823684D01*
X114653248Y-97987462D01*
X114653251Y-97987466D01*
X114792533Y-98126748D01*
X114792537Y-98126751D01*
X114860852Y-98172398D01*
X114905657Y-98226010D01*
X114914364Y-98295335D01*
X114884210Y-98358363D01*
X114824767Y-98395082D01*
X114791961Y-98399500D01*
X114346620Y-98399500D01*
X114279581Y-98379815D01*
X114233826Y-98327011D01*
X114223505Y-98290287D01*
X114214877Y-98218436D01*
X114159361Y-98077658D01*
X114159360Y-98077657D01*
X114159360Y-98077656D01*
X114067922Y-97957077D01*
X113947343Y-97865639D01*
X113840919Y-97823671D01*
X113806564Y-97810123D01*
X113806563Y-97810122D01*
X113806561Y-97810122D01*
X113760926Y-97804642D01*
X113718102Y-97799500D01*
X113106898Y-97799500D01*
X113067853Y-97804188D01*
X113018438Y-97810122D01*
X112877656Y-97865639D01*
X112762570Y-97952912D01*
X112737520Y-97962432D01*
X112714003Y-97975274D01*
X112705359Y-97974655D01*
X112697258Y-97977735D01*
X112671038Y-97972201D01*
X112644311Y-97970290D01*
X112637373Y-97965096D01*
X112628895Y-97963307D01*
X112609830Y-97944477D01*
X112588378Y-97928418D01*
X112585349Y-97920298D01*
X112579184Y-97914209D01*
X112573325Y-97888059D01*
X112563961Y-97862954D01*
X112565802Y-97854487D01*
X112563908Y-97846030D01*
X112573117Y-97820863D01*
X112578813Y-97794681D01*
X112586414Y-97784527D01*
X112587919Y-97780415D01*
X112599955Y-97766437D01*
X112745911Y-97620481D01*
X112745913Y-97620480D01*
X112820480Y-97545913D01*
X112845853Y-97501964D01*
X112896419Y-97453751D01*
X112965026Y-97440527D01*
X112992243Y-97446260D01*
X113047302Y-97464505D01*
X113047309Y-97464506D01*
X113150019Y-97474999D01*
X113199999Y-97474998D01*
X113200000Y-97474998D01*
X113200000Y-96374000D01*
X113219685Y-96306961D01*
X113272489Y-96261206D01*
X113324000Y-96250000D01*
X113576000Y-96250000D01*
X113643039Y-96269685D01*
G37*
%TD.AperFunction*%
%TA.AperFunction,Conductor*%
G36*
X117266941Y-94920185D02*
G01*
X117287583Y-94936819D01*
X117331284Y-94980520D01*
X117331286Y-94980521D01*
X117331290Y-94980524D01*
X117459575Y-95054588D01*
X117468216Y-95059577D01*
X117620943Y-95100500D01*
X117620945Y-95100500D01*
X117779055Y-95100500D01*
X117779057Y-95100500D01*
X117931784Y-95059577D01*
X117931785Y-95059576D01*
X117939635Y-95057473D01*
X117940262Y-95059813D01*
X117997500Y-95053652D01*
X118059984Y-95084919D01*
X118095644Y-95145003D01*
X118099500Y-95175685D01*
X118099500Y-96582745D01*
X118079815Y-96649784D01*
X118063181Y-96670426D01*
X116370426Y-98363181D01*
X116309103Y-98396666D01*
X116282745Y-98399500D01*
X116068039Y-98399500D01*
X116001000Y-98379815D01*
X115955245Y-98327011D01*
X115945301Y-98257853D01*
X115974326Y-98194297D01*
X115999148Y-98172398D01*
X116067462Y-98126751D01*
X116067466Y-98126748D01*
X116206748Y-97987466D01*
X116206751Y-97987462D01*
X116316185Y-97823684D01*
X116316192Y-97823671D01*
X116391569Y-97641693D01*
X116391572Y-97641681D01*
X116429999Y-97448495D01*
X116430000Y-97448492D01*
X116430000Y-97300000D01*
X115730000Y-97300000D01*
X115730000Y-96800000D01*
X116430000Y-96800000D01*
X116430000Y-96651508D01*
X116429999Y-96651504D01*
X116391572Y-96458318D01*
X116391569Y-96458306D01*
X116316192Y-96276328D01*
X116316185Y-96276315D01*
X116206751Y-96112537D01*
X116206748Y-96112533D01*
X116067466Y-95973251D01*
X116067462Y-95973248D01*
X115903684Y-95863814D01*
X115903671Y-95863807D01*
X115721691Y-95788429D01*
X115721683Y-95788427D01*
X115680000Y-95780135D01*
X115680000Y-96583011D01*
X115670060Y-96565795D01*
X115614205Y-96509940D01*
X115545796Y-96470444D01*
X115469496Y-96450000D01*
X115390504Y-96450000D01*
X115314204Y-96470444D01*
X115245795Y-96509940D01*
X115189940Y-96565795D01*
X115180000Y-96583011D01*
X115180000Y-95780136D01*
X115179999Y-95780135D01*
X115138316Y-95788427D01*
X115138308Y-95788429D01*
X114956328Y-95863807D01*
X114956315Y-95863814D01*
X114792537Y-95973248D01*
X114792533Y-95973251D01*
X114661680Y-96104105D01*
X114600357Y-96137590D01*
X114530665Y-96132606D01*
X114474732Y-96090734D01*
X114450315Y-96025270D01*
X114449999Y-96016424D01*
X114449999Y-95725028D01*
X114449998Y-95725013D01*
X114439505Y-95622302D01*
X114384358Y-95455880D01*
X114384356Y-95455875D01*
X114292315Y-95306654D01*
X114168345Y-95182684D01*
X114082994Y-95130039D01*
X114036270Y-95078091D01*
X114025047Y-95009128D01*
X114052891Y-94945046D01*
X114110960Y-94906190D01*
X114148091Y-94900500D01*
X117199902Y-94900500D01*
X117266941Y-94920185D01*
G37*
%TD.AperFunction*%
%TA.AperFunction,Conductor*%
G36*
X114385454Y-92503442D02*
G01*
X114424310Y-92561510D01*
X114430000Y-92598642D01*
X114430000Y-92620000D01*
X115130000Y-92620000D01*
X115130000Y-93120000D01*
X114430000Y-93120000D01*
X114430000Y-93518495D01*
X114468427Y-93711681D01*
X114468430Y-93711693D01*
X114543807Y-93893671D01*
X114543812Y-93893680D01*
X114552450Y-93906607D01*
X114573329Y-93973285D01*
X114554846Y-94040665D01*
X114502867Y-94087356D01*
X114449349Y-94099500D01*
X113599500Y-94099500D01*
X113532461Y-94079815D01*
X113486706Y-94027011D01*
X113475500Y-93975500D01*
X113475500Y-93506903D01*
X113475500Y-93506898D01*
X113464877Y-93418436D01*
X113409361Y-93277658D01*
X113409360Y-93277657D01*
X113409360Y-93277656D01*
X113312797Y-93150319D01*
X113315289Y-93148428D01*
X113289040Y-93100357D01*
X113294024Y-93030665D01*
X113335896Y-92974732D01*
X113401360Y-92950315D01*
X113410206Y-92949999D01*
X113574971Y-92949999D01*
X113574987Y-92949998D01*
X113677697Y-92939505D01*
X113844119Y-92884358D01*
X113844124Y-92884356D01*
X113993345Y-92792315D01*
X114117315Y-92668345D01*
X114200461Y-92533545D01*
X114252409Y-92486821D01*
X114321372Y-92475598D01*
X114385454Y-92503442D01*
G37*
%TD.AperFunction*%
%TA.AperFunction,Conductor*%
G36*
X116005539Y-88695184D02*
G01*
X116051294Y-88747988D01*
X116062500Y-88799499D01*
X116062500Y-89375000D01*
X116349363Y-89375000D01*
X116349377Y-89374999D01*
X116459341Y-89360521D01*
X116459342Y-89360521D01*
X116596175Y-89303843D01*
X116700013Y-89224166D01*
X116765183Y-89198972D01*
X116833627Y-89213010D01*
X116883617Y-89261824D01*
X116899500Y-89322542D01*
X116899500Y-90606000D01*
X116879815Y-90673039D01*
X116827011Y-90718794D01*
X116775500Y-90730000D01*
X116750000Y-90730000D01*
X116750000Y-91026082D01*
X116739434Y-91076169D01*
X116702415Y-91160006D01*
X116702415Y-91160008D01*
X116699844Y-91182172D01*
X116699500Y-91185135D01*
X116699500Y-91947207D01*
X116699501Y-91955000D01*
X116699501Y-92724865D01*
X116701340Y-92740719D01*
X116698972Y-92754498D01*
X116701455Y-92768258D01*
X116693173Y-92788251D01*
X116689509Y-92809580D01*
X116679526Y-92821197D01*
X116674717Y-92832809D01*
X116655170Y-92849543D01*
X116648885Y-92856859D01*
X116639721Y-92863221D01*
X116637865Y-92863719D01*
X116506635Y-92939485D01*
X116453833Y-92992286D01*
X116444720Y-92998614D01*
X116421674Y-93006284D01*
X116400358Y-93017924D01*
X116389118Y-93017120D01*
X116378426Y-93020679D01*
X116354892Y-93014672D01*
X116330666Y-93012940D01*
X116321644Y-93006186D01*
X116310727Y-93003400D01*
X116294175Y-92985623D01*
X116274733Y-92971068D01*
X116270795Y-92960511D01*
X116263116Y-92952263D01*
X116258803Y-92928358D01*
X116250316Y-92905604D01*
X116250000Y-92896758D01*
X116250000Y-92205000D01*
X115709769Y-92205000D01*
X115709556Y-92204204D01*
X115670060Y-92135795D01*
X115614205Y-92079940D01*
X115545796Y-92040444D01*
X115469496Y-92020000D01*
X115390504Y-92020000D01*
X115314204Y-92040444D01*
X115245795Y-92079940D01*
X115189940Y-92135795D01*
X115180000Y-92153011D01*
X115180000Y-91350136D01*
X115179999Y-91350135D01*
X115138316Y-91358427D01*
X115138308Y-91358429D01*
X114956328Y-91433807D01*
X114956315Y-91433814D01*
X114792537Y-91543248D01*
X114792533Y-91543251D01*
X114653251Y-91682533D01*
X114653248Y-91682537D01*
X114543814Y-91846315D01*
X114543809Y-91846325D01*
X114491084Y-91973614D01*
X114447243Y-92028018D01*
X114380948Y-92050082D01*
X114313249Y-92032802D01*
X114288842Y-92013842D01*
X114275000Y-92000000D01*
X113386500Y-92000000D01*
X113319461Y-91980315D01*
X113273706Y-91927511D01*
X113262500Y-91876000D01*
X113262500Y-91624000D01*
X113282185Y-91556961D01*
X113334989Y-91511206D01*
X113386500Y-91500000D01*
X114274999Y-91500000D01*
X114274999Y-91342465D01*
X115680000Y-91342465D01*
X115680000Y-91705000D01*
X116250000Y-91705000D01*
X116250000Y-90730000D01*
X116152155Y-90730000D01*
X116092627Y-90736401D01*
X116092620Y-90736403D01*
X115957913Y-90786645D01*
X115957906Y-90786649D01*
X115842812Y-90872809D01*
X115842809Y-90872812D01*
X115756649Y-90987906D01*
X115756645Y-90987913D01*
X115706403Y-91122620D01*
X115706401Y-91122627D01*
X115700000Y-91182155D01*
X115700000Y-91275073D01*
X115699513Y-91276728D01*
X115699955Y-91278395D01*
X115689707Y-91310123D01*
X115680315Y-91342112D01*
X115680000Y-91342465D01*
X114274999Y-91342465D01*
X114274999Y-91250028D01*
X114274998Y-91250013D01*
X114264505Y-91147302D01*
X114253306Y-91113504D01*
X114250904Y-91043676D01*
X114286636Y-90983634D01*
X114349156Y-90952441D01*
X114371012Y-90950500D01*
X114652725Y-90950500D01*
X114652727Y-90950500D01*
X114754588Y-90923207D01*
X114845913Y-90870480D01*
X115070480Y-90645913D01*
X115123207Y-90554588D01*
X115150500Y-90452727D01*
X115150500Y-90448417D01*
X115151528Y-90444914D01*
X115151561Y-90444667D01*
X115151599Y-90444672D01*
X115170185Y-90381378D01*
X115222989Y-90335623D01*
X115292147Y-90325679D01*
X115355703Y-90354704D01*
X115356260Y-90355190D01*
X115375000Y-90371625D01*
X115459334Y-90360523D01*
X115459342Y-90360521D01*
X115596175Y-90303843D01*
X115713679Y-90213679D01*
X115803843Y-90096175D01*
X115860521Y-89959342D01*
X115860521Y-89959341D01*
X115874999Y-89849377D01*
X115875000Y-89849363D01*
X115875000Y-89562500D01*
X115374000Y-89562500D01*
X115365314Y-89559949D01*
X115356353Y-89561238D01*
X115332312Y-89550259D01*
X115306961Y-89542815D01*
X115301033Y-89535974D01*
X115292797Y-89532213D01*
X115278507Y-89509978D01*
X115261206Y-89490011D01*
X115258918Y-89479496D01*
X115255023Y-89473435D01*
X115250000Y-89438500D01*
X115250000Y-89436500D01*
X115269685Y-89369461D01*
X115322489Y-89323706D01*
X115374000Y-89312500D01*
X115812500Y-89312500D01*
X115812500Y-88799499D01*
X115815050Y-88790813D01*
X115813762Y-88781852D01*
X115824740Y-88757811D01*
X115832185Y-88732460D01*
X115839025Y-88726532D01*
X115842787Y-88718296D01*
X115865021Y-88704006D01*
X115884989Y-88686705D01*
X115895503Y-88684417D01*
X115901565Y-88680522D01*
X115936496Y-88675499D01*
X115938501Y-88675499D01*
X116005539Y-88695184D01*
G37*
%TD.AperFunction*%
%TA.AperFunction,Conductor*%
G36*
X126199784Y-72120185D02*
G01*
X126220426Y-72136819D01*
X127063181Y-72979573D01*
X127077884Y-73006500D01*
X127094477Y-73032319D01*
X127095368Y-73038519D01*
X127096666Y-73040896D01*
X127099500Y-73067254D01*
X127099500Y-73125500D01*
X127079815Y-73192539D01*
X127027011Y-73238294D01*
X126975500Y-73249500D01*
X126789364Y-73249500D01*
X126716375Y-73260134D01*
X126716373Y-73260134D01*
X126716371Y-73260135D01*
X126603789Y-73315172D01*
X126515172Y-73403789D01*
X126460135Y-73516371D01*
X126460134Y-73516373D01*
X126460134Y-73516375D01*
X126449500Y-73589364D01*
X126449500Y-74010636D01*
X126460134Y-74083625D01*
X126460134Y-74083626D01*
X126460135Y-74083628D01*
X126515172Y-74196210D01*
X126603789Y-74284827D01*
X126679725Y-74321949D01*
X126716375Y-74339866D01*
X126789364Y-74350500D01*
X126789370Y-74350500D01*
X127710630Y-74350500D01*
X127710636Y-74350500D01*
X127783625Y-74339866D01*
X127891699Y-74287031D01*
X127896209Y-74284827D01*
X127896209Y-74284826D01*
X127896211Y-74284826D01*
X127951427Y-74229609D01*
X128012748Y-74196126D01*
X128082440Y-74201110D01*
X128086559Y-74202731D01*
X128172890Y-74238490D01*
X128172902Y-74238493D01*
X128356428Y-74274999D01*
X128356431Y-74275000D01*
X128600000Y-74275000D01*
X128600000Y-73525000D01*
X129100000Y-73525000D01*
X129100000Y-74275000D01*
X129343568Y-74275000D01*
X129351303Y-74273461D01*
X129420895Y-74279685D01*
X129476074Y-74322545D01*
X129499322Y-74388434D01*
X129499500Y-74395077D01*
X129499500Y-76604922D01*
X129479815Y-76671961D01*
X129427011Y-76717716D01*
X129357853Y-76727660D01*
X129351311Y-76726540D01*
X129343568Y-76725000D01*
X129100000Y-76725000D01*
X129100000Y-77475000D01*
X128600000Y-77475000D01*
X128600000Y-76725000D01*
X128356428Y-76725000D01*
X128269944Y-76742203D01*
X128200352Y-76735976D01*
X128147378Y-76696073D01*
X128085096Y-76614907D01*
X127964978Y-76522736D01*
X127825108Y-76464801D01*
X127825104Y-76464800D01*
X127712697Y-76450000D01*
X127500000Y-76450000D01*
X127500000Y-77950000D01*
X127519628Y-77969628D01*
X127519821Y-77969685D01*
X127520703Y-77970703D01*
X127536319Y-77986319D01*
X127535202Y-77987435D01*
X127565576Y-78022489D01*
X127567343Y-78026548D01*
X127608117Y-78124987D01*
X127608124Y-78125000D01*
X127712086Y-78280589D01*
X127712089Y-78280593D01*
X127844406Y-78412910D01*
X127844410Y-78412913D01*
X127999999Y-78516875D01*
X128000008Y-78516880D01*
X128172894Y-78588491D01*
X128172902Y-78588493D01*
X128356428Y-78624999D01*
X128356431Y-78625000D01*
X128600000Y-78625000D01*
X128600000Y-77875000D01*
X129100000Y-77875000D01*
X129100000Y-78625000D01*
X129343568Y-78625000D01*
X129351303Y-78623461D01*
X129420895Y-78629685D01*
X129476074Y-78672545D01*
X129499322Y-78738434D01*
X129499500Y-78745077D01*
X129499500Y-87754922D01*
X129479815Y-87821961D01*
X129427011Y-87867716D01*
X129357853Y-87877660D01*
X129351311Y-87876540D01*
X129343568Y-87875000D01*
X129100000Y-87875000D01*
X129100000Y-88625000D01*
X128460218Y-88625000D01*
X128386709Y-88655448D01*
X128330448Y-88711709D01*
X128300000Y-88785218D01*
X128300000Y-88864782D01*
X128330448Y-88938291D01*
X128386709Y-88994552D01*
X128460218Y-89025000D01*
X129100000Y-89025000D01*
X129100000Y-89775000D01*
X129343568Y-89775000D01*
X129351303Y-89773461D01*
X129420895Y-89779685D01*
X129476074Y-89822545D01*
X129499322Y-89888434D01*
X129499500Y-89895077D01*
X129499500Y-92104922D01*
X129479815Y-92171961D01*
X129427011Y-92217716D01*
X129357853Y-92227660D01*
X129351311Y-92226540D01*
X129343568Y-92225000D01*
X129100000Y-92225000D01*
X129100000Y-92975000D01*
X128600000Y-92975000D01*
X128600000Y-92225000D01*
X128356430Y-92225000D01*
X128172902Y-92261506D01*
X128172894Y-92261508D01*
X128000008Y-92333119D01*
X127999999Y-92333124D01*
X127844410Y-92437086D01*
X127844406Y-92437089D01*
X127712089Y-92569406D01*
X127712086Y-92569410D01*
X127608124Y-92724999D01*
X127608119Y-92725009D01*
X127561795Y-92836846D01*
X127517954Y-92891249D01*
X127451660Y-92913314D01*
X127439789Y-92913169D01*
X127427257Y-92912415D01*
X127379057Y-92899500D01*
X127220943Y-92899500D01*
X127219401Y-92899913D01*
X127208810Y-92899276D01*
X127179303Y-92888649D01*
X127149216Y-92879815D01*
X127146695Y-92876906D01*
X127143073Y-92875602D01*
X127123989Y-92850702D01*
X127103461Y-92827011D01*
X127102913Y-92823202D01*
X127100571Y-92820146D01*
X127097979Y-92788887D01*
X127093517Y-92757853D01*
X127095116Y-92754351D01*
X127094798Y-92750516D01*
X127109512Y-92722828D01*
X127122542Y-92694297D01*
X127127510Y-92688961D01*
X127127587Y-92688817D01*
X127127707Y-92688749D01*
X127128574Y-92687819D01*
X127379307Y-92437086D01*
X127820480Y-91995913D01*
X127873207Y-91904588D01*
X127900500Y-91802727D01*
X127900500Y-91697273D01*
X127900500Y-91500098D01*
X127920185Y-91433059D01*
X127936819Y-91412417D01*
X127939754Y-91409482D01*
X127980520Y-91368716D01*
X128059577Y-91231784D01*
X128100500Y-91079057D01*
X128100500Y-90920943D01*
X128059577Y-90768216D01*
X128056370Y-90762661D01*
X127980524Y-90631290D01*
X127980518Y-90631282D01*
X127868717Y-90519481D01*
X127868709Y-90519475D01*
X127731790Y-90440426D01*
X127731786Y-90440424D01*
X127731784Y-90440423D01*
X127579057Y-90399500D01*
X127420943Y-90399500D01*
X127268216Y-90440423D01*
X127268209Y-90440426D01*
X127131290Y-90519475D01*
X127131282Y-90519481D01*
X127019481Y-90631282D01*
X127019475Y-90631290D01*
X126940426Y-90768209D01*
X126940423Y-90768216D01*
X126899500Y-90920943D01*
X126899500Y-91079057D01*
X126927924Y-91185135D01*
X126940423Y-91231783D01*
X126940426Y-91231790D01*
X127019475Y-91368709D01*
X127019481Y-91368717D01*
X127063181Y-91412417D01*
X127077884Y-91439344D01*
X127094477Y-91465163D01*
X127095368Y-91471363D01*
X127096666Y-91473740D01*
X127099500Y-91500098D01*
X127099500Y-91532744D01*
X127079815Y-91599783D01*
X127063181Y-91620425D01*
X126798357Y-91885248D01*
X126737034Y-91918733D01*
X126669722Y-91914609D01*
X126634696Y-91902353D01*
X126604270Y-91899500D01*
X126604266Y-91899500D01*
X125245734Y-91899500D01*
X125245730Y-91899500D01*
X125215301Y-91902353D01*
X125119913Y-91935731D01*
X125050134Y-91939292D01*
X124989507Y-91904563D01*
X124964396Y-91866138D01*
X124956188Y-91846320D01*
X124956185Y-91846315D01*
X124846751Y-91682537D01*
X124846748Y-91682533D01*
X124707466Y-91543251D01*
X124707462Y-91543248D01*
X124543684Y-91433814D01*
X124543671Y-91433807D01*
X124361691Y-91358429D01*
X124361683Y-91358427D01*
X124320000Y-91350135D01*
X124320000Y-92153011D01*
X124310060Y-92135795D01*
X124254205Y-92079940D01*
X124185796Y-92040444D01*
X124109496Y-92020000D01*
X124030504Y-92020000D01*
X123954204Y-92040444D01*
X123885795Y-92079940D01*
X123829940Y-92135795D01*
X123820000Y-92153011D01*
X123820000Y-91333733D01*
X123806001Y-91313183D01*
X123800000Y-91275073D01*
X123800000Y-91182172D01*
X123799999Y-91182155D01*
X123793598Y-91122627D01*
X123793596Y-91122620D01*
X123743354Y-90987913D01*
X123743350Y-90987906D01*
X123657190Y-90872812D01*
X123657187Y-90872809D01*
X123542093Y-90786649D01*
X123542086Y-90786645D01*
X123407379Y-90736403D01*
X123407372Y-90736401D01*
X123347844Y-90730000D01*
X123250000Y-90730000D01*
X123250000Y-92896758D01*
X123230315Y-92963797D01*
X123177511Y-93009552D01*
X123108353Y-93019496D01*
X123055280Y-92998614D01*
X123046166Y-92992286D01*
X122993365Y-92939485D01*
X122862135Y-92863719D01*
X122860278Y-92863221D01*
X122851115Y-92856859D01*
X122832308Y-92833520D01*
X122811619Y-92811822D01*
X122810612Y-92806597D01*
X122807274Y-92802455D01*
X122804069Y-92772647D01*
X122798397Y-92743215D01*
X122798662Y-92740709D01*
X122800499Y-92724878D01*
X122800499Y-92724873D01*
X122800500Y-92724865D01*
X122800499Y-91185136D01*
X122800497Y-91185117D01*
X122797586Y-91160012D01*
X122797585Y-91160010D01*
X122797585Y-91160009D01*
X122773282Y-91104968D01*
X122760566Y-91076168D01*
X122750000Y-91026082D01*
X122750000Y-90730000D01*
X122730877Y-90710877D01*
X122697392Y-90649554D01*
X122702376Y-90579862D01*
X122730877Y-90535515D01*
X123329573Y-89936819D01*
X123390896Y-89903334D01*
X123417254Y-89900500D01*
X124862372Y-89900500D01*
X124929411Y-89920185D01*
X124962141Y-89950865D01*
X124977850Y-89972150D01*
X125087118Y-90052793D01*
X125129845Y-90067744D01*
X125215299Y-90097646D01*
X125245730Y-90100500D01*
X125245734Y-90100500D01*
X126604270Y-90100500D01*
X126634699Y-90097646D01*
X126634701Y-90097646D01*
X126698790Y-90075219D01*
X126762882Y-90052793D01*
X126872150Y-89972150D01*
X126952793Y-89862882D01*
X126983544Y-89775000D01*
X126997646Y-89734701D01*
X126997646Y-89734699D01*
X127000500Y-89704269D01*
X127000500Y-89295730D01*
X126997646Y-89265300D01*
X126997646Y-89265298D01*
X126958467Y-89153334D01*
X126952793Y-89137118D01*
X126906948Y-89075000D01*
X127531116Y-89075000D01*
X127536506Y-89102100D01*
X127536507Y-89102103D01*
X127608119Y-89274991D01*
X127608124Y-89275000D01*
X127712086Y-89430589D01*
X127712089Y-89430593D01*
X127844406Y-89562910D01*
X127844410Y-89562913D01*
X127999999Y-89666875D01*
X128000008Y-89666880D01*
X128172894Y-89738491D01*
X128172902Y-89738493D01*
X128356428Y-89774999D01*
X128356431Y-89775000D01*
X128600000Y-89775000D01*
X128600000Y-89075000D01*
X127531116Y-89075000D01*
X126906948Y-89075000D01*
X126905939Y-89073633D01*
X126881968Y-89008006D01*
X126897283Y-88939836D01*
X126905932Y-88926375D01*
X126952793Y-88862882D01*
X126986731Y-88765892D01*
X126997646Y-88734701D01*
X126997646Y-88734699D01*
X127000500Y-88704269D01*
X127000500Y-88574999D01*
X127531115Y-88574999D01*
X127531116Y-88575000D01*
X128600000Y-88575000D01*
X128600000Y-87875000D01*
X128356430Y-87875000D01*
X128172902Y-87911506D01*
X128172894Y-87911508D01*
X128000008Y-87983119D01*
X127999999Y-87983124D01*
X127844410Y-88087086D01*
X127844406Y-88087089D01*
X127712089Y-88219406D01*
X127712086Y-88219410D01*
X127608124Y-88374999D01*
X127608119Y-88375008D01*
X127536507Y-88547896D01*
X127536506Y-88547899D01*
X127531115Y-88574999D01*
X127000500Y-88574999D01*
X127000500Y-88295730D01*
X126997646Y-88265300D01*
X126997646Y-88265298D01*
X126958368Y-88153051D01*
X126952793Y-88137118D01*
X126905938Y-88073631D01*
X126881968Y-88008005D01*
X126897283Y-87939835D01*
X126905932Y-87926375D01*
X126952793Y-87862882D01*
X126980235Y-87784458D01*
X126997646Y-87734701D01*
X126997646Y-87734699D01*
X127000500Y-87704269D01*
X127000500Y-87295730D01*
X126997646Y-87265300D01*
X126997646Y-87265298D01*
X126952793Y-87137119D01*
X126952792Y-87137117D01*
X126951148Y-87134889D01*
X126905938Y-87073631D01*
X126881968Y-87008005D01*
X126897283Y-86939835D01*
X126905932Y-86926375D01*
X126952793Y-86862882D01*
X126975219Y-86798790D01*
X126997646Y-86734701D01*
X126997646Y-86734699D01*
X127000500Y-86704269D01*
X127000500Y-86295730D01*
X126997646Y-86265300D01*
X126997646Y-86265298D01*
X126962693Y-86165410D01*
X126952793Y-86137118D01*
X126905938Y-86073631D01*
X126881968Y-86008005D01*
X126897283Y-85939835D01*
X126905932Y-85926375D01*
X126952793Y-85862882D01*
X126984428Y-85772474D01*
X126997646Y-85734701D01*
X126997646Y-85734699D01*
X127000500Y-85704269D01*
X127000500Y-85295730D01*
X126997646Y-85265300D01*
X126997646Y-85265298D01*
X126952793Y-85137119D01*
X126952792Y-85137117D01*
X126924020Y-85098132D01*
X126919542Y-85085873D01*
X126910997Y-85076011D01*
X126907787Y-85053688D01*
X126900050Y-85032505D01*
X126902910Y-85019772D01*
X126901053Y-85006853D01*
X126910421Y-84986338D01*
X126915365Y-84964335D01*
X126924656Y-84955169D01*
X126930078Y-84943297D01*
X126949049Y-84931104D01*
X126965105Y-84915266D01*
X126979222Y-84911713D01*
X126988856Y-84905523D01*
X127023791Y-84900500D01*
X127050769Y-84900500D01*
X127117808Y-84920185D01*
X127158156Y-84962500D01*
X127219477Y-85068712D01*
X127219479Y-85068715D01*
X127219480Y-85068716D01*
X127331284Y-85180520D01*
X127331286Y-85180521D01*
X127331290Y-85180524D01*
X127468209Y-85259573D01*
X127468216Y-85259577D01*
X127620943Y-85300500D01*
X127620945Y-85300500D01*
X127779055Y-85300500D01*
X127779057Y-85300500D01*
X127931784Y-85259577D01*
X128068716Y-85180520D01*
X128180520Y-85068716D01*
X128259577Y-84931784D01*
X128300500Y-84779057D01*
X128300500Y-84620943D01*
X128259577Y-84468216D01*
X128240779Y-84435657D01*
X128180524Y-84331290D01*
X128180518Y-84331282D01*
X128068717Y-84219481D01*
X128068709Y-84219475D01*
X127931790Y-84140426D01*
X127931786Y-84140424D01*
X127931784Y-84140423D01*
X127779057Y-84099500D01*
X127620943Y-84099500D01*
X127618924Y-84100041D01*
X127616836Y-84100041D01*
X127612887Y-84100561D01*
X127612819Y-84100041D01*
X127560851Y-84100041D01*
X127560783Y-84100561D01*
X127556834Y-84100041D01*
X127554746Y-84100041D01*
X127552727Y-84099500D01*
X127552726Y-84099500D01*
X126987628Y-84099500D01*
X126920589Y-84079815D01*
X126887858Y-84049134D01*
X126885672Y-84046172D01*
X126872150Y-84027850D01*
X126762882Y-83947207D01*
X126762880Y-83947206D01*
X126634700Y-83902353D01*
X126604270Y-83899500D01*
X126604266Y-83899500D01*
X126449500Y-83899500D01*
X126382461Y-83879815D01*
X126336706Y-83827011D01*
X126325500Y-83775500D01*
X126325500Y-81872275D01*
X126325499Y-81872271D01*
X126318303Y-81845413D01*
X126310908Y-81817815D01*
X126298207Y-81770412D01*
X126245480Y-81679087D01*
X122886819Y-78320426D01*
X122853334Y-78259103D01*
X122850500Y-78232745D01*
X122850500Y-78170945D01*
X122850500Y-78170943D01*
X122809577Y-78018216D01*
X122741168Y-77899727D01*
X122724695Y-77831826D01*
X122747548Y-77765800D01*
X122802469Y-77722609D01*
X122823928Y-77717127D01*
X122823852Y-77716827D01*
X122831556Y-77714879D01*
X122831559Y-77714877D01*
X122831564Y-77714877D01*
X122972342Y-77659361D01*
X123092922Y-77567922D01*
X123182345Y-77450000D01*
X126254912Y-77450000D01*
X126264800Y-77525103D01*
X126264801Y-77525108D01*
X126322736Y-77664978D01*
X126414905Y-77785094D01*
X126535021Y-77877263D01*
X126674891Y-77935198D01*
X126674895Y-77935199D01*
X126787302Y-77949999D01*
X126787317Y-77950000D01*
X127000000Y-77950000D01*
X127000000Y-77450000D01*
X126254912Y-77450000D01*
X123182345Y-77450000D01*
X123184361Y-77447342D01*
X123239877Y-77306564D01*
X123250500Y-77218102D01*
X123250500Y-76949999D01*
X126254911Y-76949999D01*
X126254912Y-76950000D01*
X127000000Y-76950000D01*
X127000000Y-76450000D01*
X126787302Y-76450000D01*
X126674895Y-76464800D01*
X126674891Y-76464801D01*
X126535021Y-76522736D01*
X126414905Y-76614905D01*
X126322736Y-76735021D01*
X126264801Y-76874891D01*
X126264800Y-76874896D01*
X126254911Y-76949999D01*
X123250500Y-76949999D01*
X123250500Y-76606898D01*
X123239877Y-76518436D01*
X123184361Y-76377658D01*
X123184360Y-76377657D01*
X123184360Y-76377656D01*
X123092922Y-76257077D01*
X122972343Y-76165639D01*
X122934339Y-76150652D01*
X122844826Y-76115353D01*
X122789685Y-76072449D01*
X122766492Y-76006541D01*
X122782612Y-75938557D01*
X122832929Y-75890080D01*
X122844814Y-75884651D01*
X122972342Y-75834361D01*
X123092922Y-75742922D01*
X123184361Y-75622342D01*
X123239877Y-75481564D01*
X123250500Y-75393102D01*
X123250500Y-74781898D01*
X123239877Y-74693436D01*
X123230195Y-74668886D01*
X123223915Y-74599301D01*
X123256252Y-74537365D01*
X123316941Y-74502744D01*
X123328871Y-74500549D01*
X123329054Y-74500500D01*
X123329057Y-74500500D01*
X123481784Y-74459577D01*
X123618716Y-74380520D01*
X123730520Y-74268716D01*
X123809577Y-74131784D01*
X123850500Y-73979057D01*
X123850500Y-73820943D01*
X123809577Y-73668216D01*
X123776831Y-73611499D01*
X123760359Y-73543600D01*
X123783212Y-73477573D01*
X123838133Y-73434382D01*
X123884219Y-73425500D01*
X124743097Y-73425500D01*
X124743102Y-73425500D01*
X124831564Y-73414877D01*
X124972342Y-73359361D01*
X125092922Y-73267922D01*
X125184361Y-73147342D01*
X125239877Y-73006564D01*
X125250500Y-72918102D01*
X125250500Y-72306898D01*
X125242380Y-72239282D01*
X125253932Y-72170376D01*
X125300904Y-72118652D01*
X125365496Y-72100500D01*
X126132745Y-72100500D01*
X126199784Y-72120185D01*
G37*
%TD.AperFunction*%
%TA.AperFunction,Conductor*%
G36*
X119687653Y-80004095D02*
G01*
X119689764Y-80006157D01*
X119754087Y-80070480D01*
X119845412Y-80123207D01*
X119947273Y-80150500D01*
X120052727Y-80150500D01*
X121532745Y-80150500D01*
X121599784Y-80170185D01*
X121620426Y-80186819D01*
X123563181Y-82129573D01*
X123596666Y-82190896D01*
X123599500Y-82217254D01*
X123599500Y-85647273D01*
X123599500Y-85752727D01*
X123600016Y-85754652D01*
X123626793Y-85854589D01*
X123646077Y-85887988D01*
X123679520Y-85945913D01*
X124554087Y-86820480D01*
X124645412Y-86873207D01*
X124747273Y-86900500D01*
X124826209Y-86900500D01*
X124893248Y-86920185D01*
X124939003Y-86972989D01*
X124948947Y-87042147D01*
X124925979Y-87098131D01*
X124912389Y-87116546D01*
X124897207Y-87137117D01*
X124897206Y-87137119D01*
X124852353Y-87265298D01*
X124852353Y-87265300D01*
X124849500Y-87295730D01*
X124849500Y-87704269D01*
X124852353Y-87734699D01*
X124852353Y-87734701D01*
X124897206Y-87862880D01*
X124897207Y-87862882D01*
X124944060Y-87926366D01*
X124944061Y-87926367D01*
X124968031Y-87991996D01*
X124952715Y-88060166D01*
X124944062Y-88073630D01*
X124914068Y-88114272D01*
X124897207Y-88137118D01*
X124897206Y-88137119D01*
X124852353Y-88265298D01*
X124852353Y-88265300D01*
X124849500Y-88295730D01*
X124849500Y-88704269D01*
X124852353Y-88734699D01*
X124852353Y-88734701D01*
X124888154Y-88837011D01*
X124897207Y-88862882D01*
X124925979Y-88901867D01*
X124949950Y-88967495D01*
X124934635Y-89035665D01*
X124884895Y-89084734D01*
X124826209Y-89099500D01*
X123260339Y-89099500D01*
X123260323Y-89099499D01*
X123252727Y-89099499D01*
X123147273Y-89099499D01*
X123058796Y-89123207D01*
X123058795Y-89123206D01*
X123045414Y-89126792D01*
X123045410Y-89126794D01*
X122954085Y-89179521D01*
X122112181Y-90021426D01*
X122050858Y-90054911D01*
X121981166Y-90049927D01*
X121925233Y-90008055D01*
X121900816Y-89942591D01*
X121900500Y-89933745D01*
X121900500Y-84283693D01*
X121920185Y-84216654D01*
X121925691Y-84208774D01*
X121934361Y-84197342D01*
X121989877Y-84056564D01*
X122000500Y-83968102D01*
X122000500Y-83356898D01*
X121989877Y-83268436D01*
X121934361Y-83127658D01*
X121934360Y-83127657D01*
X121934360Y-83127656D01*
X121842922Y-83007077D01*
X121792047Y-82968498D01*
X121750524Y-82912306D01*
X121745972Y-82842584D01*
X121779837Y-82781470D01*
X121801875Y-82764155D01*
X121918345Y-82692315D01*
X122042315Y-82568345D01*
X122134356Y-82419124D01*
X122134358Y-82419119D01*
X122189505Y-82252697D01*
X122189506Y-82252690D01*
X122199999Y-82149986D01*
X122200000Y-82149973D01*
X122200000Y-82087500D01*
X121124000Y-82087500D01*
X121056961Y-82067815D01*
X121011206Y-82015011D01*
X121000000Y-81963500D01*
X121000000Y-81837500D01*
X120874000Y-81837500D01*
X120806961Y-81817815D01*
X120761206Y-81765011D01*
X120750000Y-81713500D01*
X120750000Y-81587500D01*
X121250000Y-81587500D01*
X122199999Y-81587500D01*
X122199999Y-81525028D01*
X122199998Y-81525013D01*
X122189505Y-81422302D01*
X122134358Y-81255880D01*
X122134356Y-81255875D01*
X122042315Y-81106654D01*
X121918345Y-80982684D01*
X121769124Y-80890643D01*
X121769119Y-80890641D01*
X121602697Y-80835494D01*
X121602690Y-80835493D01*
X121499986Y-80825000D01*
X121250000Y-80825000D01*
X121250000Y-81587500D01*
X120750000Y-81587500D01*
X120750000Y-80825000D01*
X120500029Y-80825000D01*
X120500012Y-80825001D01*
X120397302Y-80835494D01*
X120230880Y-80890641D01*
X120230875Y-80890643D01*
X120081657Y-80982682D01*
X119966749Y-81097590D01*
X119905426Y-81131074D01*
X119835734Y-81126090D01*
X119804143Y-81108712D01*
X119747343Y-81065639D01*
X119606559Y-81010121D01*
X119598886Y-81009200D01*
X119534672Y-80981661D01*
X119495541Y-80923777D01*
X119493917Y-80853926D01*
X119506287Y-80824085D01*
X119559577Y-80731784D01*
X119600500Y-80579057D01*
X119600500Y-80420943D01*
X119559577Y-80268216D01*
X119494695Y-80155837D01*
X119478223Y-80087938D01*
X119501076Y-80021911D01*
X119555997Y-79978720D01*
X119625550Y-79972079D01*
X119687653Y-80004095D01*
G37*
%TD.AperFunction*%
%TA.AperFunction,Conductor*%
G36*
X114518513Y-87265961D02*
G01*
X114520873Y-87265685D01*
X114554458Y-87276515D01*
X114582491Y-87290220D01*
X114653051Y-87300500D01*
X114846948Y-87300499D01*
X114866401Y-87297665D01*
X114935577Y-87307479D01*
X114988467Y-87353135D01*
X115007216Y-87404184D01*
X115014478Y-87459340D01*
X115014478Y-87459342D01*
X115071156Y-87596175D01*
X115161326Y-87713687D01*
X115163187Y-87715548D01*
X115164253Y-87717502D01*
X115166268Y-87720127D01*
X115165858Y-87720441D01*
X115196668Y-87776873D01*
X115197411Y-87780559D01*
X115199500Y-87791799D01*
X115199501Y-87846948D01*
X115209780Y-87917509D01*
X115230903Y-87960718D01*
X115233993Y-87977336D01*
X115232090Y-87995960D01*
X115235241Y-88014416D01*
X115227519Y-88040714D01*
X115226893Y-88046844D01*
X115225034Y-88049174D01*
X115223484Y-88054457D01*
X115209781Y-88082488D01*
X115209780Y-88082490D01*
X115209110Y-88087089D01*
X115199500Y-88153051D01*
X115199500Y-88153055D01*
X115199500Y-88153056D01*
X115199500Y-88196777D01*
X115179815Y-88263816D01*
X115163187Y-88284452D01*
X115161323Y-88286315D01*
X115071158Y-88403821D01*
X115041799Y-88474695D01*
X114997956Y-88529097D01*
X114974695Y-88541799D01*
X114903821Y-88571158D01*
X114786316Y-88661322D01*
X114784446Y-88663193D01*
X114782482Y-88664264D01*
X114779872Y-88666268D01*
X114779559Y-88665860D01*
X114723118Y-88696670D01*
X114719440Y-88697411D01*
X114708199Y-88699500D01*
X114653052Y-88699501D01*
X114582491Y-88709780D01*
X114539281Y-88730903D01*
X114522664Y-88733993D01*
X114504039Y-88732090D01*
X114485584Y-88735241D01*
X114459285Y-88727519D01*
X114453156Y-88726893D01*
X114450825Y-88725034D01*
X114445543Y-88723484D01*
X114417511Y-88709781D01*
X114417509Y-88709780D01*
X114415148Y-88709436D01*
X114346949Y-88699500D01*
X114346943Y-88699500D01*
X114153048Y-88699500D01*
X114084846Y-88709436D01*
X114015670Y-88699621D01*
X113962781Y-88653964D01*
X113942972Y-88586961D01*
X113952411Y-88539278D01*
X113985521Y-88459342D01*
X113985521Y-88459340D01*
X113996626Y-88375000D01*
X113653468Y-88375000D01*
X113644812Y-88372458D01*
X113635882Y-88373747D01*
X113598995Y-88362394D01*
X113596948Y-88361393D01*
X113592128Y-88356988D01*
X113586429Y-88355315D01*
X113571714Y-88338334D01*
X113545371Y-88314260D01*
X113542953Y-88305141D01*
X113540674Y-88302511D01*
X113533396Y-88269097D01*
X113527464Y-88246724D01*
X113548913Y-88180228D01*
X113597011Y-88138575D01*
X113599061Y-88137572D01*
X113600820Y-88137166D01*
X113601899Y-88136231D01*
X113609803Y-88135090D01*
X113653467Y-88125000D01*
X113996626Y-88125000D01*
X113985521Y-88040659D01*
X113985521Y-88040657D01*
X113928843Y-87903824D01*
X113838675Y-87786315D01*
X113836818Y-87784458D01*
X113835751Y-87782504D01*
X113833732Y-87779873D01*
X113834142Y-87779558D01*
X113803333Y-87723135D01*
X113802588Y-87719442D01*
X113800499Y-87708206D01*
X113800499Y-87653052D01*
X113790220Y-87582491D01*
X113769093Y-87539276D01*
X113766005Y-87522665D01*
X113767906Y-87504042D01*
X113764756Y-87485591D01*
X113772477Y-87459295D01*
X113773104Y-87453157D01*
X113774965Y-87450822D01*
X113776515Y-87445540D01*
X113790220Y-87417509D01*
X113793076Y-87397904D01*
X113822217Y-87334405D01*
X113876831Y-87298056D01*
X113887146Y-87294643D01*
X113917509Y-87290220D01*
X113953085Y-87272827D01*
X113961051Y-87270192D01*
X113987912Y-87269280D01*
X114014409Y-87264756D01*
X114025478Y-87268006D01*
X114030881Y-87267823D01*
X114036738Y-87271312D01*
X114054459Y-87276515D01*
X114082491Y-87290220D01*
X114153051Y-87300500D01*
X114346948Y-87300499D01*
X114346950Y-87300499D01*
X114375172Y-87296387D01*
X114417509Y-87290220D01*
X114445539Y-87276516D01*
X114448865Y-87275948D01*
X114451476Y-87273804D01*
X114483068Y-87270107D01*
X114514409Y-87264756D01*
X114518513Y-87265961D01*
G37*
%TD.AperFunction*%
%TA.AperFunction,Conductor*%
G36*
X118943039Y-83469685D02*
G01*
X118988794Y-83522489D01*
X119000000Y-83574000D01*
X119000000Y-83700000D01*
X119126000Y-83700000D01*
X119193039Y-83719685D01*
X119238794Y-83772489D01*
X119250000Y-83824000D01*
X119250000Y-84699999D01*
X119524972Y-84699999D01*
X119524986Y-84699998D01*
X119627697Y-84689505D01*
X119794119Y-84634358D01*
X119794124Y-84634356D01*
X119943345Y-84542315D01*
X120067316Y-84418344D01*
X120071798Y-84412677D01*
X120073139Y-84413738D01*
X120118377Y-84373036D01*
X120187338Y-84361803D01*
X120246911Y-84386045D01*
X120277656Y-84409360D01*
X120277657Y-84409360D01*
X120277658Y-84409361D01*
X120418436Y-84464877D01*
X120506898Y-84475500D01*
X120975500Y-84475500D01*
X121042539Y-84495185D01*
X121088294Y-84547989D01*
X121099500Y-84599500D01*
X121099500Y-87774590D01*
X121079815Y-87841629D01*
X121027011Y-87887384D01*
X120957853Y-87897328D01*
X120894297Y-87868303D01*
X120868113Y-87836590D01*
X120866160Y-87833207D01*
X120820480Y-87754087D01*
X120745913Y-87679520D01*
X117245913Y-84179520D01*
X117154588Y-84126793D01*
X117140247Y-84122950D01*
X117119969Y-84110590D01*
X117097743Y-84102227D01*
X117090684Y-84092740D01*
X117080587Y-84086586D01*
X117070209Y-84065223D01*
X117056034Y-84046172D01*
X117055224Y-84034375D01*
X117050058Y-84023739D01*
X117052877Y-84000159D01*
X117052865Y-83999986D01*
X117775001Y-83999986D01*
X117785494Y-84102697D01*
X117840641Y-84269119D01*
X117840643Y-84269124D01*
X117932684Y-84418345D01*
X118056654Y-84542315D01*
X118205875Y-84634356D01*
X118205880Y-84634358D01*
X118372302Y-84689505D01*
X118372309Y-84689506D01*
X118475019Y-84699999D01*
X118749999Y-84699999D01*
X118750000Y-84699998D01*
X118750000Y-83950000D01*
X117775001Y-83950000D01*
X117775001Y-83999986D01*
X117052865Y-83999986D01*
X117051252Y-83976466D01*
X117057324Y-83962966D01*
X117058353Y-83954364D01*
X117063682Y-83943433D01*
X117070236Y-83931511D01*
X117073528Y-83928220D01*
X117092262Y-83891451D01*
X117093194Y-83889757D01*
X117116649Y-83866437D01*
X117139342Y-83842410D01*
X117141368Y-83841861D01*
X117142742Y-83840496D01*
X117160493Y-83836688D01*
X117201853Y-83825500D01*
X117377725Y-83825500D01*
X117377727Y-83825500D01*
X117479588Y-83798207D01*
X117570913Y-83745480D01*
X117830074Y-83486319D01*
X117891397Y-83452834D01*
X117917755Y-83450000D01*
X118876000Y-83450000D01*
X118943039Y-83469685D01*
G37*
%TD.AperFunction*%
%TA.AperFunction,Conductor*%
G36*
X109040725Y-76653151D02*
G01*
X109042147Y-76652947D01*
X109060246Y-76657913D01*
X109060365Y-76657473D01*
X109068214Y-76659576D01*
X109068216Y-76659577D01*
X109220943Y-76700500D01*
X109220945Y-76700500D01*
X109336638Y-76700500D01*
X109377505Y-76712500D01*
X110076000Y-76712500D01*
X110143039Y-76732185D01*
X110188794Y-76784989D01*
X110200000Y-76836500D01*
X110200000Y-76962500D01*
X110326000Y-76962500D01*
X110393039Y-76982185D01*
X110438794Y-77034989D01*
X110450000Y-77086500D01*
X110450000Y-78122295D01*
X110450001Y-78122295D01*
X110452486Y-78122100D01*
X110610197Y-78076281D01*
X110612371Y-78074996D01*
X110614301Y-78074505D01*
X110617354Y-78073185D01*
X110617567Y-78073677D01*
X110680093Y-78057808D01*
X110746358Y-78079962D01*
X110790125Y-78134425D01*
X110799500Y-78181723D01*
X110799500Y-80378988D01*
X110779815Y-80446027D01*
X110727011Y-80491782D01*
X110657853Y-80501726D01*
X110636498Y-80496694D01*
X110602704Y-80485496D01*
X110602690Y-80485493D01*
X110499986Y-80475000D01*
X110450000Y-80475000D01*
X110450000Y-82924999D01*
X110499972Y-82924999D01*
X110499986Y-82924998D01*
X110602697Y-82914505D01*
X110636496Y-82903306D01*
X110706324Y-82900904D01*
X110766366Y-82936636D01*
X110797559Y-82999156D01*
X110799500Y-83021012D01*
X110799500Y-84334291D01*
X110779815Y-84401330D01*
X110727011Y-84447085D01*
X110657853Y-84457029D01*
X110600012Y-84432666D01*
X110595916Y-84429523D01*
X110595913Y-84429520D01*
X110520613Y-84386045D01*
X110504589Y-84376793D01*
X110448643Y-84361803D01*
X110402727Y-84349500D01*
X110402726Y-84349500D01*
X109160339Y-84349500D01*
X109160323Y-84349499D01*
X109152727Y-84349499D01*
X109047273Y-84349499D01*
X109001355Y-84361803D01*
X108945413Y-84376792D01*
X108906082Y-84399499D01*
X108906083Y-84399500D01*
X108854087Y-84429519D01*
X108786589Y-84497018D01*
X108786588Y-84497017D01*
X108472335Y-84811271D01*
X108411012Y-84844756D01*
X108345650Y-84841296D01*
X108252697Y-84810494D01*
X108252690Y-84810493D01*
X108149986Y-84800000D01*
X108087500Y-84800000D01*
X108087500Y-85876000D01*
X108067815Y-85943039D01*
X108015011Y-85988794D01*
X107963500Y-86000000D01*
X107837500Y-86000000D01*
X107837500Y-86126000D01*
X107817815Y-86193039D01*
X107765011Y-86238794D01*
X107713500Y-86250000D01*
X106825001Y-86250000D01*
X106825001Y-86499986D01*
X106835494Y-86602697D01*
X106890641Y-86769119D01*
X106890643Y-86769124D01*
X106953113Y-86870403D01*
X106955197Y-86878022D01*
X106960368Y-86883989D01*
X106964285Y-86911236D01*
X106971553Y-86937796D01*
X106969188Y-86945330D01*
X106970312Y-86953147D01*
X106958873Y-86978192D01*
X106950630Y-87004459D01*
X106944568Y-87009518D01*
X106941287Y-87016703D01*
X106918123Y-87031589D01*
X106896988Y-87049229D01*
X106887657Y-87051168D01*
X106882509Y-87054477D01*
X106847574Y-87059500D01*
X106715405Y-87059500D01*
X106648366Y-87039815D01*
X106602611Y-86987011D01*
X106596629Y-86968492D01*
X106596267Y-86968606D01*
X106545514Y-86805736D01*
X106545511Y-86805727D01*
X106460651Y-86665351D01*
X106460648Y-86665347D01*
X106344652Y-86549351D01*
X106344648Y-86549348D01*
X106204272Y-86464488D01*
X106204263Y-86464485D01*
X106047664Y-86415687D01*
X106047662Y-86415686D01*
X106047657Y-86415685D01*
X105979594Y-86409500D01*
X102624500Y-86409500D01*
X102615814Y-86406949D01*
X102606853Y-86408238D01*
X102582812Y-86397259D01*
X102557461Y-86389815D01*
X102551533Y-86382974D01*
X102543297Y-86379213D01*
X102529007Y-86356978D01*
X102511706Y-86337011D01*
X102509418Y-86326496D01*
X102505523Y-86320435D01*
X102500500Y-86285500D01*
X102500500Y-86134500D01*
X102520185Y-86067461D01*
X102572989Y-86021706D01*
X102624500Y-86010500D01*
X105979591Y-86010500D01*
X105979594Y-86010500D01*
X106047657Y-86004315D01*
X106204270Y-85955512D01*
X106220146Y-85945915D01*
X106344648Y-85870651D01*
X106344647Y-85870651D01*
X106344653Y-85870648D01*
X106460648Y-85754653D01*
X106528926Y-85641705D01*
X106548209Y-85624046D01*
X106564689Y-85603746D01*
X106573561Y-85600828D01*
X106580451Y-85594519D01*
X106606222Y-85590088D01*
X106631062Y-85581920D01*
X106644628Y-85583485D01*
X106649311Y-85582680D01*
X106666140Y-85585819D01*
X106666522Y-85585918D01*
X106720943Y-85600500D01*
X106722807Y-85600500D01*
X106732098Y-85602907D01*
X106755805Y-85617088D01*
X106781080Y-85628269D01*
X106785372Y-85634775D01*
X106792059Y-85638776D01*
X106804336Y-85663526D01*
X106819552Y-85686593D01*
X106821185Y-85697491D01*
X106823108Y-85701367D01*
X106822536Y-85706507D01*
X106825000Y-85722944D01*
X106825000Y-85750000D01*
X107587500Y-85750000D01*
X107587500Y-84800000D01*
X107587499Y-84799999D01*
X107525028Y-84800000D01*
X107525006Y-84800002D01*
X107465972Y-84806032D01*
X107397279Y-84793262D01*
X107346396Y-84745380D01*
X107346045Y-84744778D01*
X107280520Y-84631284D01*
X107168716Y-84519480D01*
X107168714Y-84519479D01*
X107168709Y-84519475D01*
X107031790Y-84440426D01*
X107031786Y-84440424D01*
X107031784Y-84440423D01*
X106879057Y-84399500D01*
X106720943Y-84399500D01*
X106701039Y-84404832D01*
X106631190Y-84403168D01*
X106573329Y-84364004D01*
X106550565Y-84321948D01*
X106545512Y-84305730D01*
X106523380Y-84269119D01*
X106460651Y-84165351D01*
X106460648Y-84165347D01*
X106344652Y-84049351D01*
X106344648Y-84049348D01*
X106204272Y-83964488D01*
X106204263Y-83964485D01*
X106047664Y-83915687D01*
X106047662Y-83915686D01*
X106047657Y-83915685D01*
X105979594Y-83909500D01*
X105979591Y-83909500D01*
X105706255Y-83909500D01*
X105639216Y-83889815D01*
X105593461Y-83837011D01*
X105583517Y-83767853D01*
X105612542Y-83704297D01*
X105618574Y-83697819D01*
X107179574Y-82136819D01*
X107206501Y-82122115D01*
X107232320Y-82105523D01*
X107238520Y-82104631D01*
X107240897Y-82103334D01*
X107267255Y-82100500D01*
X107375661Y-82100500D01*
X107442700Y-82120185D01*
X107488455Y-82172989D01*
X107498784Y-82214456D01*
X107499059Y-82214424D01*
X107499322Y-82216614D01*
X107499439Y-82217084D01*
X107499499Y-82218091D01*
X107510122Y-82306561D01*
X107565639Y-82447343D01*
X107657077Y-82567922D01*
X107777656Y-82659360D01*
X107777657Y-82659360D01*
X107777658Y-82659361D01*
X107918436Y-82714877D01*
X108006898Y-82725500D01*
X108006903Y-82725500D01*
X108593097Y-82725500D01*
X108593102Y-82725500D01*
X108681564Y-82714877D01*
X108822342Y-82659361D01*
X108942922Y-82567922D01*
X109006017Y-82484719D01*
X109039486Y-82440584D01*
X109041317Y-82441972D01*
X109082607Y-82401689D01*
X109151058Y-82387682D01*
X109216216Y-82412905D01*
X109257394Y-82469351D01*
X109258391Y-82472241D01*
X109265640Y-82494115D01*
X109265643Y-82494124D01*
X109357684Y-82643345D01*
X109481654Y-82767315D01*
X109630875Y-82859356D01*
X109630880Y-82859358D01*
X109797302Y-82914505D01*
X109797309Y-82914506D01*
X109900019Y-82924999D01*
X109949999Y-82924998D01*
X109950000Y-82924998D01*
X109950000Y-80475000D01*
X109949999Y-80474999D01*
X109900029Y-80475000D01*
X109900011Y-80475001D01*
X109797302Y-80485494D01*
X109630880Y-80540641D01*
X109630875Y-80540643D01*
X109481654Y-80632684D01*
X109357684Y-80756654D01*
X109265643Y-80905875D01*
X109265640Y-80905884D01*
X109258391Y-80927759D01*
X109218618Y-80985203D01*
X109154102Y-81012025D01*
X109085326Y-80999709D01*
X109040834Y-80958393D01*
X109039486Y-80959416D01*
X108942922Y-80832077D01*
X108822341Y-80740638D01*
X108822339Y-80740637D01*
X108779010Y-80723550D01*
X108762421Y-80710642D01*
X108743297Y-80701909D01*
X108735396Y-80689615D01*
X108723866Y-80680644D01*
X108716888Y-80660816D01*
X108705523Y-80643131D01*
X108701970Y-80618422D01*
X108700673Y-80614736D01*
X108700500Y-80608196D01*
X108700500Y-80417254D01*
X108720185Y-80350215D01*
X108736815Y-80329577D01*
X108851641Y-80214750D01*
X108912964Y-80181266D01*
X108980278Y-80185391D01*
X109015301Y-80197646D01*
X109015300Y-80197646D01*
X109045730Y-80200500D01*
X109045734Y-80200500D01*
X109454270Y-80200500D01*
X109484699Y-80197646D01*
X109484701Y-80197646D01*
X109563178Y-80170185D01*
X109612882Y-80152793D01*
X109722150Y-80072150D01*
X109802793Y-79962882D01*
X109834749Y-79871558D01*
X109847646Y-79834701D01*
X109847646Y-79834699D01*
X109850500Y-79804269D01*
X109850500Y-78670730D01*
X109847646Y-78640300D01*
X109847646Y-78640298D01*
X109810074Y-78532925D01*
X109802793Y-78512118D01*
X109722150Y-78402850D01*
X109612882Y-78322207D01*
X109612880Y-78322206D01*
X109484700Y-78277353D01*
X109454270Y-78274500D01*
X109454266Y-78274500D01*
X109045734Y-78274500D01*
X109045730Y-78274500D01*
X109015300Y-78277353D01*
X109015298Y-78277353D01*
X108887119Y-78322206D01*
X108887117Y-78322207D01*
X108777850Y-78402850D01*
X108697207Y-78512117D01*
X108697206Y-78512119D01*
X108652353Y-78640298D01*
X108652353Y-78640300D01*
X108649500Y-78670730D01*
X108649500Y-79232745D01*
X108629815Y-79299784D01*
X108613181Y-79320426D01*
X107979522Y-79954084D01*
X107979520Y-79954087D01*
X107953301Y-79999500D01*
X107926793Y-80045412D01*
X107903784Y-80131284D01*
X107901642Y-80139278D01*
X107899500Y-80147272D01*
X107899500Y-80608196D01*
X107879815Y-80675235D01*
X107827011Y-80720990D01*
X107820990Y-80723550D01*
X107777660Y-80740637D01*
X107777658Y-80740638D01*
X107657077Y-80832077D01*
X107565639Y-80952656D01*
X107510122Y-81093438D01*
X107499499Y-81181908D01*
X107499439Y-81182916D01*
X107499348Y-81183168D01*
X107499059Y-81185576D01*
X107498505Y-81185509D01*
X107475781Y-81248658D01*
X107420335Y-81291173D01*
X107375661Y-81299500D01*
X106997273Y-81299500D01*
X106895410Y-81326793D01*
X106804087Y-81379520D01*
X106804084Y-81379522D01*
X104310426Y-83873181D01*
X104249103Y-83906666D01*
X104222745Y-83909500D01*
X102520406Y-83909500D01*
X102452343Y-83915685D01*
X102452341Y-83915685D01*
X102452338Y-83915686D01*
X102295730Y-83964487D01*
X102295728Y-83964488D01*
X102248947Y-83992768D01*
X102181392Y-84010603D01*
X102114919Y-83989084D01*
X102091086Y-83967853D01*
X102063724Y-83936275D01*
X101915831Y-83808126D01*
X101901513Y-83795719D01*
X101823339Y-83745480D01*
X101720951Y-83679679D01*
X101720938Y-83679672D01*
X101525715Y-83590517D01*
X101319774Y-83530047D01*
X101319764Y-83530044D01*
X101128754Y-83502582D01*
X101107318Y-83499500D01*
X101107317Y-83499500D01*
X101006962Y-83499500D01*
X100993078Y-83498720D01*
X100980553Y-83497308D01*
X100902735Y-83488540D01*
X100875666Y-83482362D01*
X100796462Y-83454648D01*
X100771444Y-83442600D01*
X100700395Y-83397957D01*
X100678686Y-83380644D01*
X100619355Y-83321313D01*
X100602042Y-83299604D01*
X100557399Y-83228555D01*
X100545351Y-83203537D01*
X100518800Y-83127658D01*
X100517636Y-83124331D01*
X100511459Y-83097263D01*
X100509116Y-83076472D01*
X100501280Y-83006922D01*
X100500500Y-82993038D01*
X100500500Y-81506961D01*
X100501280Y-81493077D01*
X100503151Y-81476472D01*
X100511459Y-81402731D01*
X100517635Y-81375670D01*
X100545353Y-81296456D01*
X100557396Y-81271450D01*
X100602046Y-81200389D01*
X100619351Y-81178690D01*
X100678690Y-81119351D01*
X100700389Y-81102046D01*
X100771450Y-81057396D01*
X100796456Y-81045353D01*
X100875670Y-81017635D01*
X100902733Y-81011459D01*
X100965419Y-81004396D01*
X100993079Y-81001280D01*
X101006962Y-81000500D01*
X101107317Y-81000500D01*
X101107318Y-81000500D01*
X101289612Y-80974290D01*
X101319764Y-80969955D01*
X101319765Y-80969954D01*
X101319769Y-80969954D01*
X101525710Y-80909484D01*
X101525713Y-80909482D01*
X101525715Y-80909482D01*
X101720938Y-80820327D01*
X101720944Y-80820323D01*
X101720950Y-80820321D01*
X101901513Y-80704281D01*
X102063724Y-80563724D01*
X102101343Y-80520309D01*
X102160117Y-80482537D01*
X102229986Y-80482535D01*
X102288765Y-80520308D01*
X102293858Y-80526587D01*
X102333647Y-80579057D01*
X102382079Y-80642923D01*
X102502656Y-80734360D01*
X102502657Y-80734360D01*
X102502658Y-80734361D01*
X102643436Y-80789877D01*
X102643443Y-80789877D01*
X102651148Y-80791826D01*
X102650795Y-80793219D01*
X102699373Y-80813947D01*
X102700279Y-80812592D01*
X102705344Y-80815976D01*
X102705345Y-80815977D01*
X102877402Y-80930941D01*
X103068580Y-81010130D01*
X103245649Y-81045351D01*
X103271530Y-81050499D01*
X103271534Y-81050500D01*
X103271535Y-81050500D01*
X105603466Y-81050500D01*
X105603467Y-81050499D01*
X105806420Y-81010130D01*
X105997598Y-80930941D01*
X105997599Y-80930940D01*
X105997600Y-80930940D01*
X106161543Y-80821398D01*
X106228220Y-80800520D01*
X106230433Y-80800500D01*
X106318097Y-80800500D01*
X106318102Y-80800500D01*
X106406564Y-80789877D01*
X106547342Y-80734361D01*
X106667922Y-80642922D01*
X106759361Y-80522342D01*
X106814877Y-80381564D01*
X106825500Y-80293102D01*
X106825500Y-79706898D01*
X106814877Y-79618436D01*
X106759361Y-79477658D01*
X106759360Y-79477657D01*
X106759360Y-79477656D01*
X106667922Y-79357077D01*
X106547341Y-79265638D01*
X106547339Y-79265637D01*
X106520381Y-79255006D01*
X106465237Y-79212100D01*
X106442044Y-79146192D01*
X106458165Y-79078208D01*
X106508482Y-79029732D01*
X106541677Y-79018035D01*
X106581420Y-79010130D01*
X106772598Y-78930941D01*
X106944655Y-78815977D01*
X107090977Y-78669655D01*
X107205941Y-78497598D01*
X107214780Y-78476258D01*
X107258619Y-78421856D01*
X107307475Y-78402969D01*
X107307377Y-78402603D01*
X107310785Y-78401689D01*
X107313162Y-78400771D01*
X107315214Y-78400500D01*
X107315227Y-78400500D01*
X107417088Y-78373207D01*
X107508413Y-78320480D01*
X107892382Y-77936509D01*
X107953703Y-77903026D01*
X108021015Y-77907150D01*
X108036082Y-77912422D01*
X108065301Y-77922646D01*
X108071387Y-77923216D01*
X108095730Y-77925500D01*
X108095734Y-77925500D01*
X108504270Y-77925500D01*
X108534699Y-77922646D01*
X108534701Y-77922646D01*
X108609926Y-77896323D01*
X108662882Y-77877793D01*
X108772150Y-77797150D01*
X108852793Y-77687882D01*
X108875219Y-77623790D01*
X108897646Y-77559701D01*
X108897646Y-77559699D01*
X108899433Y-77540649D01*
X109400000Y-77540649D01*
X109402899Y-77577489D01*
X109402900Y-77577495D01*
X109448716Y-77735193D01*
X109448717Y-77735196D01*
X109532314Y-77876552D01*
X109532321Y-77876561D01*
X109648438Y-77992678D01*
X109648447Y-77992685D01*
X109789801Y-78076281D01*
X109947514Y-78122100D01*
X109947511Y-78122100D01*
X109949998Y-78122295D01*
X109950000Y-78122295D01*
X109950000Y-77212500D01*
X109400000Y-77212500D01*
X109400000Y-77540649D01*
X108899433Y-77540649D01*
X108900500Y-77529269D01*
X108900500Y-76775685D01*
X108909743Y-76744205D01*
X108917867Y-76712397D01*
X108919541Y-76710838D01*
X108920185Y-76708646D01*
X108944975Y-76687164D01*
X108969010Y-76664794D01*
X108971261Y-76664388D01*
X108972989Y-76662891D01*
X109005467Y-76658220D01*
X109037771Y-76652397D01*
X109040725Y-76653151D01*
G37*
%TD.AperFunction*%
%TA.AperFunction,Conductor*%
G36*
X115415577Y-82429157D02*
G01*
X115417647Y-82428860D01*
X115423198Y-82431395D01*
X115456289Y-82441111D01*
X115541874Y-82484719D01*
X115541876Y-82484719D01*
X115541878Y-82484720D01*
X115641507Y-82500500D01*
X115641512Y-82500500D01*
X115958494Y-82500500D01*
X115959994Y-82500382D01*
X115969717Y-82500000D01*
X116430283Y-82500000D01*
X116431639Y-82500007D01*
X116438900Y-82500086D01*
X116441512Y-82500500D01*
X116476716Y-82500500D01*
X116477356Y-82500507D01*
X116510179Y-82510536D01*
X116543039Y-82520185D01*
X116543500Y-82520717D01*
X116544176Y-82520924D01*
X116566375Y-82547116D01*
X116588794Y-82572989D01*
X116588963Y-82573767D01*
X116589351Y-82574225D01*
X116589801Y-82577618D01*
X116600000Y-82624500D01*
X116600000Y-82750000D01*
X116726000Y-82750000D01*
X116734685Y-82752550D01*
X116743647Y-82751262D01*
X116767687Y-82762240D01*
X116793039Y-82769685D01*
X116798966Y-82776525D01*
X116807203Y-82780287D01*
X116821492Y-82802521D01*
X116838794Y-82822489D01*
X116841081Y-82833003D01*
X116844977Y-82839065D01*
X116850000Y-82874000D01*
X116850000Y-82875500D01*
X116830315Y-82942539D01*
X116777511Y-82988294D01*
X116726000Y-82999500D01*
X116441511Y-82999500D01*
X116424481Y-83002197D01*
X116401362Y-82999208D01*
X116401362Y-83000000D01*
X116050000Y-83000000D01*
X116050000Y-83327098D01*
X116050889Y-83328727D01*
X116052197Y-83374481D01*
X116049500Y-83391510D01*
X116049500Y-83676000D01*
X116029815Y-83743039D01*
X115977011Y-83788794D01*
X115925500Y-83800000D01*
X114074500Y-83800000D01*
X114007461Y-83780315D01*
X113961706Y-83727511D01*
X113950500Y-83676000D01*
X113950500Y-83391511D01*
X113949873Y-83387556D01*
X113947803Y-83374485D01*
X113950791Y-83351362D01*
X113950000Y-83351362D01*
X113950000Y-83000000D01*
X113622892Y-83000000D01*
X113621256Y-83000893D01*
X113608794Y-83000000D01*
X113598638Y-83000000D01*
X113598638Y-82999928D01*
X113575518Y-83002197D01*
X113558488Y-82999500D01*
X113274000Y-82999500D01*
X113265314Y-82996949D01*
X113256353Y-82998238D01*
X113232312Y-82987259D01*
X113206961Y-82979815D01*
X113201033Y-82972974D01*
X113192797Y-82969213D01*
X113178507Y-82946978D01*
X113161206Y-82927011D01*
X113158918Y-82916496D01*
X113155023Y-82910435D01*
X113150000Y-82875500D01*
X113150000Y-82874000D01*
X113168654Y-82810472D01*
X114450000Y-82810472D01*
X114450000Y-83300000D01*
X114750000Y-83300000D01*
X114750000Y-82810472D01*
X115250000Y-82810472D01*
X115250000Y-83300000D01*
X115550000Y-83300000D01*
X115550000Y-82810472D01*
X115549999Y-82810472D01*
X115434595Y-82844001D01*
X115408341Y-82843926D01*
X115382353Y-82847663D01*
X115365405Y-82844001D01*
X115250000Y-82810472D01*
X114750000Y-82810472D01*
X114749999Y-82810472D01*
X114634595Y-82844001D01*
X114608341Y-82843926D01*
X114582353Y-82847663D01*
X114565405Y-82844001D01*
X114450000Y-82810472D01*
X113168654Y-82810472D01*
X113169685Y-82806961D01*
X113222489Y-82761206D01*
X113274000Y-82750000D01*
X113400000Y-82750000D01*
X113400000Y-82624500D01*
X113419685Y-82557461D01*
X113472489Y-82511706D01*
X113524000Y-82500500D01*
X113558494Y-82500500D01*
X113559994Y-82500382D01*
X113569717Y-82500000D01*
X114030283Y-82500000D01*
X114040006Y-82500382D01*
X114041506Y-82500500D01*
X114041512Y-82500500D01*
X114358493Y-82500500D01*
X114458121Y-82484720D01*
X114458121Y-82484719D01*
X114458126Y-82484719D01*
X114543709Y-82441112D01*
X114546410Y-82440604D01*
X114548489Y-82438804D01*
X114580538Y-82434195D01*
X114612374Y-82428217D01*
X114615577Y-82429157D01*
X114617647Y-82428860D01*
X114623198Y-82431395D01*
X114656289Y-82441111D01*
X114741874Y-82484719D01*
X114741876Y-82484719D01*
X114741878Y-82484720D01*
X114841507Y-82500500D01*
X114841512Y-82500500D01*
X115158493Y-82500500D01*
X115258121Y-82484720D01*
X115258121Y-82484719D01*
X115258126Y-82484719D01*
X115343709Y-82441112D01*
X115346410Y-82440604D01*
X115348489Y-82438804D01*
X115380538Y-82434195D01*
X115412374Y-82428217D01*
X115415577Y-82429157D01*
G37*
%TD.AperFunction*%
%TA.AperFunction,Conductor*%
G36*
X108928047Y-65011270D02*
G01*
X108250000Y-65011270D01*
X108250000Y-66750000D01*
X112500000Y-66750000D01*
X112501008Y-65369310D01*
X112518294Y-65389259D01*
X112529500Y-65440770D01*
X112529500Y-69244069D01*
X112534754Y-69270480D01*
X112534754Y-69270482D01*
X112544887Y-69321425D01*
X112554499Y-69369744D01*
X112603535Y-69488127D01*
X112668484Y-69585331D01*
X112674726Y-69594673D01*
X112674727Y-69594674D01*
X113585327Y-70505273D01*
X113585335Y-70505279D01*
X113691862Y-70576458D01*
X113691866Y-70576460D01*
X113691873Y-70576465D01*
X113722952Y-70589338D01*
X113777355Y-70633178D01*
X113799421Y-70699472D01*
X113799500Y-70703899D01*
X113799500Y-71175500D01*
X113779815Y-71242539D01*
X113727011Y-71288294D01*
X113675500Y-71299500D01*
X113602727Y-71299500D01*
X110897273Y-71299500D01*
X110795413Y-71326793D01*
X110789261Y-71330345D01*
X110704087Y-71379520D01*
X110639262Y-71444344D01*
X110632296Y-71449586D01*
X110607423Y-71458932D01*
X110584103Y-71471666D01*
X110569298Y-71473257D01*
X110566892Y-71474162D01*
X110564890Y-71473731D01*
X110557745Y-71474500D01*
X110406898Y-71474500D01*
X110367853Y-71479188D01*
X110318438Y-71485122D01*
X110177656Y-71540639D01*
X110057077Y-71632077D01*
X109960514Y-71759416D01*
X109958686Y-71758030D01*
X109917361Y-71798326D01*
X109848906Y-71812315D01*
X109783755Y-71787073D01*
X109742593Y-71730615D01*
X109741607Y-71727755D01*
X109734359Y-71705882D01*
X109734356Y-71705875D01*
X109642315Y-71556654D01*
X109518345Y-71432684D01*
X109369124Y-71340643D01*
X109369119Y-71340641D01*
X109202697Y-71285494D01*
X109202690Y-71285493D01*
X109099986Y-71275000D01*
X109050000Y-71275000D01*
X109050000Y-72376000D01*
X109030315Y-72443039D01*
X108977511Y-72488794D01*
X108926000Y-72500000D01*
X108800000Y-72500000D01*
X108800000Y-72626000D01*
X108780315Y-72693039D01*
X108727511Y-72738794D01*
X108676000Y-72750000D01*
X107800001Y-72750000D01*
X107800001Y-73024986D01*
X107810494Y-73127697D01*
X107865641Y-73294119D01*
X107865643Y-73294124D01*
X107957684Y-73443345D01*
X108081655Y-73567316D01*
X108081659Y-73567319D01*
X108198124Y-73639156D01*
X108244849Y-73691104D01*
X108256070Y-73760066D01*
X108228227Y-73824148D01*
X108207953Y-73843497D01*
X108157078Y-73882077D01*
X108065639Y-74002656D01*
X108010122Y-74143438D01*
X108004741Y-74188256D01*
X107999500Y-74231898D01*
X107999500Y-74231903D01*
X107999500Y-75186255D01*
X107982887Y-75248256D01*
X107979520Y-75254086D01*
X107979520Y-75254087D01*
X107926793Y-75345412D01*
X107910937Y-75404588D01*
X107910937Y-75404589D01*
X107910936Y-75404588D01*
X107899500Y-75447269D01*
X107899500Y-76012372D01*
X107879815Y-76079411D01*
X107849134Y-76112142D01*
X107827850Y-76127850D01*
X107747207Y-76237117D01*
X107747206Y-76237119D01*
X107702353Y-76365298D01*
X107702353Y-76365300D01*
X107699500Y-76395730D01*
X107699500Y-76945245D01*
X107679815Y-77012284D01*
X107663181Y-77032926D01*
X107307880Y-77388226D01*
X107246557Y-77421711D01*
X107176865Y-77416727D01*
X107120932Y-77374855D01*
X107117097Y-77369436D01*
X107090977Y-77330344D01*
X106944657Y-77184024D01*
X106779454Y-77073640D01*
X106772598Y-77069059D01*
X106713585Y-77044615D01*
X106581420Y-76989870D01*
X106581412Y-76989868D01*
X106378469Y-76949500D01*
X106378465Y-76949500D01*
X102821535Y-76949500D01*
X102821530Y-76949500D01*
X102648691Y-76983880D01*
X102579099Y-76977653D01*
X102523922Y-76934790D01*
X102500678Y-76868900D01*
X102500500Y-76862263D01*
X102500500Y-75137736D01*
X102520185Y-75070697D01*
X102572989Y-75024942D01*
X102642147Y-75014998D01*
X102648669Y-75016115D01*
X102821533Y-75050499D01*
X102821534Y-75050500D01*
X102821535Y-75050500D01*
X106378466Y-75050500D01*
X106378467Y-75050499D01*
X106581420Y-75010130D01*
X106772598Y-74930941D01*
X106944655Y-74815977D01*
X107090977Y-74669655D01*
X107205941Y-74497598D01*
X107285130Y-74306420D01*
X107325500Y-74103465D01*
X107325500Y-73896535D01*
X107285130Y-73693580D01*
X107205941Y-73502402D01*
X107090977Y-73330345D01*
X107090975Y-73330342D01*
X106944657Y-73184024D01*
X106877867Y-73139397D01*
X106823546Y-73103101D01*
X106778742Y-73049491D01*
X106770035Y-72980166D01*
X106800189Y-72917138D01*
X106823545Y-72896899D01*
X106944655Y-72815977D01*
X107090977Y-72669655D01*
X107205941Y-72497598D01*
X107285130Y-72306420D01*
X107325500Y-72103465D01*
X107325500Y-71975013D01*
X107800000Y-71975013D01*
X107800000Y-72250000D01*
X108550000Y-72250000D01*
X108550000Y-71275000D01*
X108549999Y-71274999D01*
X108500029Y-71275000D01*
X108500011Y-71275001D01*
X108397302Y-71285494D01*
X108230880Y-71340641D01*
X108230875Y-71340643D01*
X108081654Y-71432684D01*
X107957684Y-71556654D01*
X107865643Y-71705875D01*
X107865641Y-71705880D01*
X107810494Y-71872302D01*
X107810493Y-71872309D01*
X107800000Y-71975013D01*
X107325500Y-71975013D01*
X107325500Y-71896535D01*
X107285130Y-71693580D01*
X107205941Y-71502402D01*
X107090977Y-71330345D01*
X107090975Y-71330342D01*
X106944657Y-71184024D01*
X106808581Y-71093102D01*
X106772598Y-71069059D01*
X106759718Y-71063724D01*
X106581420Y-70989870D01*
X106581412Y-70989868D01*
X106378469Y-70949500D01*
X106378465Y-70949500D01*
X104603465Y-70949500D01*
X102821535Y-70949500D01*
X102821530Y-70949500D01*
X102618587Y-70989868D01*
X102618579Y-70989870D01*
X102427400Y-71069059D01*
X102360905Y-71113489D01*
X102294227Y-71134366D01*
X102226848Y-71115880D01*
X102198306Y-71091591D01*
X102075183Y-70949500D01*
X102063724Y-70936275D01*
X101901514Y-70795720D01*
X101901513Y-70795719D01*
X101836991Y-70754253D01*
X101720951Y-70679679D01*
X101720938Y-70679672D01*
X101525715Y-70590517D01*
X101319774Y-70530047D01*
X101319764Y-70530044D01*
X101128754Y-70502582D01*
X101107318Y-70499500D01*
X101107317Y-70499500D01*
X101006962Y-70499500D01*
X100993078Y-70498720D01*
X100980553Y-70497308D01*
X100902735Y-70488540D01*
X100875666Y-70482362D01*
X100796462Y-70454648D01*
X100771444Y-70442600D01*
X100700395Y-70397957D01*
X100678686Y-70380644D01*
X100619355Y-70321313D01*
X100602042Y-70299604D01*
X100574014Y-70254998D01*
X100557398Y-70228553D01*
X100545351Y-70203537D01*
X100535687Y-70175919D01*
X100517636Y-70124331D01*
X100511459Y-70097263D01*
X100501280Y-70006922D01*
X100500500Y-69993038D01*
X100500500Y-67538226D01*
X100520185Y-67471187D01*
X100572989Y-67425432D01*
X100642147Y-67415488D01*
X100705703Y-67444513D01*
X100742430Y-67499906D01*
X100744577Y-67506515D01*
X100748444Y-67518414D01*
X100844951Y-67707820D01*
X100969890Y-67879786D01*
X101120213Y-68030109D01*
X101292179Y-68155048D01*
X101292181Y-68155049D01*
X101292184Y-68155051D01*
X101481588Y-68251557D01*
X101683757Y-68317246D01*
X101893713Y-68350500D01*
X101893714Y-68350500D01*
X102106286Y-68350500D01*
X102106287Y-68350500D01*
X102316243Y-68317246D01*
X102518412Y-68251557D01*
X102707816Y-68155051D01*
X102783588Y-68100000D01*
X102879786Y-68030109D01*
X102879788Y-68030106D01*
X102879792Y-68030104D01*
X103030104Y-67879792D01*
X103030106Y-67879788D01*
X103030109Y-67879786D01*
X103155048Y-67707820D01*
X103155047Y-67707820D01*
X103155051Y-67707816D01*
X103251557Y-67518412D01*
X103317246Y-67316243D01*
X103350500Y-67106287D01*
X103350500Y-66893713D01*
X103317246Y-66683757D01*
X103251557Y-66481588D01*
X103155051Y-66292184D01*
X103155049Y-66292181D01*
X103155048Y-66292179D01*
X103030109Y-66120213D01*
X102879786Y-65969890D01*
X102707820Y-65844951D01*
X102518414Y-65748444D01*
X102518413Y-65748443D01*
X102518412Y-65748443D01*
X102316243Y-65682754D01*
X102316241Y-65682753D01*
X102316240Y-65682753D01*
X102142837Y-65655289D01*
X102106287Y-65649500D01*
X101893713Y-65649500D01*
X101857163Y-65655289D01*
X101683760Y-65682753D01*
X101683757Y-65682754D01*
X101535657Y-65730875D01*
X101481585Y-65748444D01*
X101292179Y-65844951D01*
X101120213Y-65969890D01*
X100969890Y-66120213D01*
X100844951Y-66292179D01*
X100748445Y-66481582D01*
X100748443Y-66481587D01*
X100748443Y-66481588D01*
X100742429Y-66500094D01*
X100702992Y-66557768D01*
X100638633Y-66584965D01*
X100569787Y-66573050D01*
X100518312Y-66525805D01*
X100500500Y-66461773D01*
X100500500Y-65124000D01*
X100520185Y-65056961D01*
X100572989Y-65011206D01*
X100624500Y-65000000D01*
X108889666Y-65000000D01*
X108928047Y-65011270D01*
G37*
%TD.AperFunction*%
%TA.AperFunction,Conductor*%
G36*
X111693799Y-74516612D02*
G01*
X111768216Y-74559577D01*
X111920943Y-74600500D01*
X111920945Y-74600500D01*
X112033745Y-74600500D01*
X112100784Y-74620185D01*
X112146539Y-74672989D01*
X112156483Y-74742147D01*
X112127458Y-74805703D01*
X112121426Y-74812181D01*
X111904484Y-75029122D01*
X111843161Y-75062607D01*
X111773469Y-75057623D01*
X111729121Y-75029122D01*
X111699999Y-75000000D01*
X110824000Y-75000000D01*
X110756961Y-74980315D01*
X110711206Y-74927511D01*
X110700000Y-74876000D01*
X110700000Y-74624000D01*
X110719685Y-74556961D01*
X110772489Y-74511206D01*
X110824000Y-74500000D01*
X111631800Y-74500000D01*
X111693799Y-74516612D01*
G37*
%TD.AperFunction*%
%TA.AperFunction,Conductor*%
G36*
X118947779Y-72104819D02*
G01*
X118963100Y-72104191D01*
X118980623Y-72114463D01*
X119000109Y-72120185D01*
X119010148Y-72131771D01*
X119023377Y-72139526D01*
X119032564Y-72157641D01*
X119045864Y-72172989D01*
X119048517Y-72189093D01*
X119054982Y-72201839D01*
X119056428Y-72237103D01*
X119050000Y-72300013D01*
X119050000Y-72362500D01*
X120126000Y-72362500D01*
X120193039Y-72382185D01*
X120238794Y-72434989D01*
X120250000Y-72486500D01*
X120250000Y-72612500D01*
X120376000Y-72612500D01*
X120443039Y-72632185D01*
X120488794Y-72684989D01*
X120500000Y-72736500D01*
X120500000Y-73624999D01*
X120749972Y-73624999D01*
X120749986Y-73624998D01*
X120852697Y-73614505D01*
X121019119Y-73559358D01*
X121019124Y-73559356D01*
X121168345Y-73467315D01*
X121292316Y-73343344D01*
X121296798Y-73337677D01*
X121299234Y-73339603D01*
X121340771Y-73302185D01*
X121409725Y-73290911D01*
X121469372Y-73315162D01*
X121527656Y-73359360D01*
X121527657Y-73359360D01*
X121527658Y-73359361D01*
X121668436Y-73414877D01*
X121756898Y-73425500D01*
X122057745Y-73425500D01*
X122124784Y-73445185D01*
X122145426Y-73461819D01*
X122621187Y-73937580D01*
X122629204Y-73951466D01*
X122639387Y-73960723D01*
X122653280Y-73993165D01*
X122686838Y-74118408D01*
X122685176Y-74188256D01*
X122646014Y-74246119D01*
X122581785Y-74273623D01*
X122567064Y-74274500D01*
X121756898Y-74274500D01*
X121720349Y-74278889D01*
X121668438Y-74285122D01*
X121527656Y-74340639D01*
X121407076Y-74432078D01*
X121350375Y-74506850D01*
X121294183Y-74548373D01*
X121224461Y-74552924D01*
X121163347Y-74519059D01*
X121152768Y-74506849D01*
X121094711Y-74430288D01*
X120975499Y-74339888D01*
X120975497Y-74339887D01*
X120836322Y-74285003D01*
X120823826Y-74283502D01*
X120748860Y-74274500D01*
X119751140Y-74274500D01*
X119685544Y-74282377D01*
X119663677Y-74285003D01*
X119569990Y-74321949D01*
X119500403Y-74328231D01*
X119438467Y-74295894D01*
X119403846Y-74235205D01*
X119400500Y-74206595D01*
X119400500Y-73947275D01*
X119400500Y-73947273D01*
X119373207Y-73845413D01*
X119320480Y-73754087D01*
X119304275Y-73737882D01*
X119270790Y-73676559D01*
X119275774Y-73606867D01*
X119317646Y-73550934D01*
X119383110Y-73526517D01*
X119451383Y-73541369D01*
X119457053Y-73544663D01*
X119480869Y-73559353D01*
X119480880Y-73559358D01*
X119647302Y-73614505D01*
X119647309Y-73614506D01*
X119750019Y-73624999D01*
X119999999Y-73624999D01*
X120000000Y-73624998D01*
X120000000Y-72862500D01*
X119050001Y-72862500D01*
X119050001Y-72924986D01*
X119060494Y-73027697D01*
X119115641Y-73194119D01*
X119115645Y-73194128D01*
X119130337Y-73217947D01*
X119148777Y-73285339D01*
X119127854Y-73352003D01*
X119074212Y-73396772D01*
X119004881Y-73405433D01*
X118941874Y-73375236D01*
X118937117Y-73370724D01*
X117878574Y-72312181D01*
X117845089Y-72250858D01*
X117850073Y-72181166D01*
X117891945Y-72125233D01*
X117957409Y-72100816D01*
X117966255Y-72100500D01*
X118933070Y-72100500D01*
X118947779Y-72104819D01*
G37*
%TD.AperFunction*%
%TA.AperFunction,Conductor*%
G36*
X115618518Y-71757885D02*
G01*
X115620891Y-71757608D01*
X115639158Y-71763500D01*
X115639397Y-71762728D01*
X115651620Y-71766504D01*
X115654735Y-71768568D01*
X115657278Y-71769812D01*
X115659033Y-71771416D01*
X115709863Y-71805099D01*
X115733492Y-71848367D01*
X115737269Y-71860589D01*
X115734293Y-71861508D01*
X115743323Y-71914425D01*
X115736094Y-71939044D01*
X115737270Y-71939408D01*
X115734425Y-71948611D01*
X115724500Y-72016739D01*
X115724500Y-72183260D01*
X115734425Y-72251388D01*
X115737270Y-72260592D01*
X115734294Y-72261511D01*
X115743323Y-72314425D01*
X115736094Y-72339044D01*
X115737270Y-72339408D01*
X115734425Y-72348611D01*
X115724500Y-72416739D01*
X115724500Y-72583260D01*
X115734425Y-72651388D01*
X115737270Y-72660592D01*
X115734294Y-72661511D01*
X115743323Y-72714425D01*
X115736094Y-72739044D01*
X115737270Y-72739408D01*
X115734425Y-72748611D01*
X115724500Y-72816739D01*
X115724500Y-72983260D01*
X115734425Y-73051388D01*
X115737270Y-73060592D01*
X115734294Y-73061511D01*
X115736724Y-73075753D01*
X115744043Y-73105506D01*
X115742700Y-73110775D01*
X115743323Y-73114425D01*
X115737474Y-73140183D01*
X115734966Y-73147503D01*
X115734427Y-73148607D01*
X115734307Y-73149427D01*
X115732329Y-73155203D01*
X115713187Y-73182265D01*
X115694889Y-73209872D01*
X115692888Y-73210964D01*
X115691982Y-73212246D01*
X115686442Y-73214484D01*
X115651634Y-73233491D01*
X115639413Y-73237268D01*
X115638493Y-73234293D01*
X115636623Y-73234612D01*
X115627200Y-73238420D01*
X115621091Y-73237262D01*
X115585575Y-73243323D01*
X115560955Y-73236094D01*
X115560592Y-73237270D01*
X115551388Y-73234425D01*
X115483261Y-73224500D01*
X115483260Y-73224500D01*
X115316740Y-73224500D01*
X115316739Y-73224500D01*
X115248611Y-73234425D01*
X115239408Y-73237270D01*
X115238488Y-73234294D01*
X115185575Y-73243323D01*
X115160955Y-73236094D01*
X115160592Y-73237270D01*
X115151388Y-73234425D01*
X115083261Y-73224500D01*
X115083260Y-73224500D01*
X114916740Y-73224500D01*
X114916739Y-73224500D01*
X114848611Y-73234425D01*
X114839408Y-73237270D01*
X114838488Y-73234294D01*
X114785575Y-73243323D01*
X114760955Y-73236094D01*
X114760592Y-73237270D01*
X114751388Y-73234425D01*
X114683261Y-73224500D01*
X114683260Y-73224500D01*
X114516740Y-73224500D01*
X114516739Y-73224500D01*
X114448611Y-73234425D01*
X114439408Y-73237270D01*
X114438488Y-73234294D01*
X114424250Y-73236723D01*
X114394497Y-73244043D01*
X114389226Y-73242699D01*
X114385575Y-73243323D01*
X114359819Y-73237474D01*
X114352492Y-73234964D01*
X114351393Y-73234427D01*
X114350575Y-73234307D01*
X114344798Y-73232329D01*
X114317741Y-73213192D01*
X114290129Y-73194891D01*
X114289037Y-73192891D01*
X114287754Y-73191984D01*
X114285511Y-73186433D01*
X114266504Y-73151620D01*
X114262728Y-73139397D01*
X114265708Y-73138476D01*
X114265396Y-73136649D01*
X114261579Y-73127202D01*
X114262736Y-73121089D01*
X114256673Y-73085610D01*
X114263910Y-73060960D01*
X114262730Y-73060596D01*
X114265571Y-73051399D01*
X114265571Y-73051396D01*
X114265573Y-73051393D01*
X114275500Y-72983260D01*
X114275500Y-72816740D01*
X114265573Y-72748607D01*
X114265571Y-72748604D01*
X114265571Y-72748600D01*
X114262730Y-72739404D01*
X114265709Y-72738483D01*
X114256673Y-72685610D01*
X114263910Y-72660960D01*
X114262730Y-72660596D01*
X114265571Y-72651399D01*
X114265571Y-72651396D01*
X114265573Y-72651393D01*
X114275500Y-72583260D01*
X114275500Y-72416740D01*
X114265573Y-72348607D01*
X114265571Y-72348604D01*
X114265571Y-72348600D01*
X114262730Y-72339404D01*
X114265709Y-72338483D01*
X114256673Y-72285610D01*
X114263910Y-72260960D01*
X114262730Y-72260596D01*
X114265571Y-72251399D01*
X114265571Y-72251396D01*
X114265573Y-72251393D01*
X114275500Y-72183260D01*
X114275500Y-72016740D01*
X114265573Y-71948607D01*
X114265571Y-71948604D01*
X114265571Y-71948600D01*
X114262730Y-71939404D01*
X114265709Y-71938483D01*
X114263279Y-71924261D01*
X114255957Y-71894504D01*
X114257295Y-71889252D01*
X114256673Y-71885610D01*
X114262523Y-71859826D01*
X114265031Y-71852499D01*
X114265573Y-71851393D01*
X114265693Y-71850569D01*
X114267667Y-71844805D01*
X114286795Y-71817756D01*
X114305096Y-71790138D01*
X114307102Y-71789042D01*
X114308010Y-71787759D01*
X114313562Y-71785514D01*
X114348382Y-71766503D01*
X114360606Y-71762727D01*
X114361526Y-71765708D01*
X114363341Y-71765397D01*
X114372789Y-71761580D01*
X114378904Y-71762737D01*
X114414390Y-71756673D01*
X114439039Y-71763910D01*
X114439404Y-71762730D01*
X114448600Y-71765571D01*
X114448604Y-71765571D01*
X114448607Y-71765573D01*
X114516740Y-71775500D01*
X114516745Y-71775500D01*
X114683255Y-71775500D01*
X114683260Y-71775500D01*
X114751393Y-71765573D01*
X114751396Y-71765571D01*
X114751399Y-71765571D01*
X114760596Y-71762730D01*
X114761516Y-71765709D01*
X114814390Y-71756673D01*
X114839039Y-71763910D01*
X114839404Y-71762730D01*
X114848600Y-71765571D01*
X114848604Y-71765571D01*
X114848607Y-71765573D01*
X114916740Y-71775500D01*
X114916745Y-71775500D01*
X115083255Y-71775500D01*
X115083260Y-71775500D01*
X115151393Y-71765573D01*
X115151396Y-71765571D01*
X115151399Y-71765571D01*
X115160596Y-71762730D01*
X115161516Y-71765709D01*
X115214390Y-71756673D01*
X115239039Y-71763910D01*
X115239404Y-71762730D01*
X115248600Y-71765571D01*
X115248604Y-71765571D01*
X115248607Y-71765573D01*
X115316740Y-71775500D01*
X115316745Y-71775500D01*
X115483255Y-71775500D01*
X115483260Y-71775500D01*
X115551393Y-71765573D01*
X115551396Y-71765571D01*
X115551399Y-71765571D01*
X115560596Y-71762730D01*
X115561169Y-71764585D01*
X115583055Y-71762028D01*
X115614390Y-71756673D01*
X115618518Y-71757885D01*
G37*
%TD.AperFunction*%
%TA.AperFunction,Conductor*%
G36*
X129442539Y-65019685D02*
G01*
X129488294Y-65072489D01*
X129499500Y-65124000D01*
X129499500Y-66461773D01*
X129479815Y-66528812D01*
X129427011Y-66574567D01*
X129357853Y-66584511D01*
X129294297Y-66555486D01*
X129257570Y-66500094D01*
X129251557Y-66481588D01*
X129155051Y-66292184D01*
X129155049Y-66292181D01*
X129155048Y-66292179D01*
X129030109Y-66120213D01*
X128879786Y-65969890D01*
X128707820Y-65844951D01*
X128518414Y-65748444D01*
X128518413Y-65748443D01*
X128518412Y-65748443D01*
X128316243Y-65682754D01*
X128316241Y-65682753D01*
X128316240Y-65682753D01*
X128142837Y-65655289D01*
X128106287Y-65649500D01*
X127893713Y-65649500D01*
X127857163Y-65655289D01*
X127683760Y-65682753D01*
X127683757Y-65682754D01*
X127535657Y-65730875D01*
X127481585Y-65748444D01*
X127292179Y-65844951D01*
X127120213Y-65969890D01*
X126969890Y-66120213D01*
X126844951Y-66292179D01*
X126748444Y-66481585D01*
X126682753Y-66683760D01*
X126649500Y-66893713D01*
X126649500Y-67106286D01*
X126675859Y-67272714D01*
X126682754Y-67316243D01*
X126744577Y-67506515D01*
X126748444Y-67518414D01*
X126844951Y-67707820D01*
X126969890Y-67879786D01*
X127120213Y-68030109D01*
X127292179Y-68155048D01*
X127292181Y-68155049D01*
X127292184Y-68155051D01*
X127481588Y-68251557D01*
X127683757Y-68317246D01*
X127893713Y-68350500D01*
X127893714Y-68350500D01*
X128106286Y-68350500D01*
X128106287Y-68350500D01*
X128316243Y-68317246D01*
X128518412Y-68251557D01*
X128707816Y-68155051D01*
X128783588Y-68100000D01*
X128879786Y-68030109D01*
X128879788Y-68030106D01*
X128879792Y-68030104D01*
X129030104Y-67879792D01*
X129030106Y-67879788D01*
X129030109Y-67879786D01*
X129155048Y-67707820D01*
X129155047Y-67707820D01*
X129155051Y-67707816D01*
X129251557Y-67518412D01*
X129257569Y-67499907D01*
X129297006Y-67442232D01*
X129361365Y-67415034D01*
X129430211Y-67426949D01*
X129481687Y-67474193D01*
X129499500Y-67538226D01*
X129499500Y-72254922D01*
X129479815Y-72321961D01*
X129427011Y-72367716D01*
X129357853Y-72377660D01*
X129351311Y-72376540D01*
X129343568Y-72375000D01*
X129100000Y-72375000D01*
X129100000Y-73125000D01*
X128600000Y-73125000D01*
X128600000Y-72375000D01*
X128356430Y-72375000D01*
X128172902Y-72411506D01*
X128172894Y-72411508D01*
X128000008Y-72483119D01*
X127999994Y-72483127D01*
X127904487Y-72546943D01*
X127874206Y-72556424D01*
X127844463Y-72567524D01*
X127841095Y-72566792D01*
X127837810Y-72567821D01*
X127807213Y-72559427D01*
X127776187Y-72552683D01*
X127772459Y-72549892D01*
X127770430Y-72549336D01*
X127747930Y-72531536D01*
X127741585Y-72525193D01*
X127741583Y-72525190D01*
X127741571Y-72525179D01*
X126595915Y-71379522D01*
X126595914Y-71379521D01*
X126595913Y-71379520D01*
X126528577Y-71340643D01*
X126504589Y-71326793D01*
X126453657Y-71313146D01*
X126402727Y-71299500D01*
X126402726Y-71299500D01*
X125365496Y-71299500D01*
X125298457Y-71279815D01*
X125252702Y-71227011D01*
X125242380Y-71160717D01*
X125250500Y-71093102D01*
X125250500Y-70481898D01*
X125239877Y-70393436D01*
X125184361Y-70252658D01*
X125184359Y-70252656D01*
X125184359Y-70252655D01*
X125175696Y-70241231D01*
X125150873Y-70175919D01*
X125150500Y-70166306D01*
X125150500Y-67619309D01*
X125170185Y-67552270D01*
X125222989Y-67506515D01*
X125259712Y-67496194D01*
X125311321Y-67489997D01*
X125450500Y-67435111D01*
X125569711Y-67344711D01*
X125660111Y-67225500D01*
X125714997Y-67086321D01*
X125725500Y-66998860D01*
X125725500Y-66001140D01*
X125714997Y-65913679D01*
X125677487Y-65818561D01*
X125660112Y-65774502D01*
X125660111Y-65774500D01*
X125569711Y-65655288D01*
X125450499Y-65564888D01*
X125450497Y-65564887D01*
X125311322Y-65510003D01*
X125298826Y-65508502D01*
X125223860Y-65499500D01*
X124651140Y-65499500D01*
X124585544Y-65507377D01*
X124563677Y-65510003D01*
X124424502Y-65564887D01*
X124424500Y-65564888D01*
X124305288Y-65655288D01*
X124209764Y-65781258D01*
X124207518Y-65779555D01*
X124167509Y-65818561D01*
X124099053Y-65832545D01*
X124033904Y-65807299D01*
X123992746Y-65750838D01*
X123991762Y-65747985D01*
X123984903Y-65727287D01*
X123984903Y-65727285D01*
X123893629Y-65579308D01*
X123770691Y-65456370D01*
X123622714Y-65365096D01*
X123622709Y-65365094D01*
X123457673Y-65310407D01*
X123355815Y-65300000D01*
X123312500Y-65300000D01*
X123312500Y-67700000D01*
X123355803Y-67700000D01*
X123355815Y-67699999D01*
X123457673Y-67689592D01*
X123622709Y-67634905D01*
X123622714Y-67634903D01*
X123770691Y-67543629D01*
X123893629Y-67420691D01*
X123984903Y-67272714D01*
X123984904Y-67272710D01*
X123991762Y-67252015D01*
X124031533Y-67194569D01*
X124096048Y-67167744D01*
X124164824Y-67180057D01*
X124207256Y-67214769D01*
X124214137Y-67223594D01*
X124214889Y-67225500D01*
X124305289Y-67344711D01*
X124313329Y-67350807D01*
X124323287Y-67363579D01*
X124330417Y-67381607D01*
X124341945Y-67397204D01*
X124346295Y-67421749D01*
X124348986Y-67428551D01*
X124348204Y-67432517D01*
X124349500Y-67439826D01*
X124349500Y-69850500D01*
X124329815Y-69917539D01*
X124277011Y-69963294D01*
X124225500Y-69974500D01*
X123756898Y-69974500D01*
X123717853Y-69979188D01*
X123668438Y-69985122D01*
X123527656Y-70040639D01*
X123407077Y-70132077D01*
X123348804Y-70208923D01*
X123292611Y-70250447D01*
X123222890Y-70254998D01*
X123161776Y-70221133D01*
X123151196Y-70208923D01*
X123092922Y-70132077D01*
X122972343Y-70040639D01*
X122831561Y-69985122D01*
X122785926Y-69979642D01*
X122743102Y-69974500D01*
X121774500Y-69974500D01*
X121707461Y-69954815D01*
X121661706Y-69902011D01*
X121650500Y-69850500D01*
X121650500Y-68897275D01*
X121650500Y-68897273D01*
X121623207Y-68795413D01*
X121623207Y-68795412D01*
X121570480Y-68704087D01*
X121539640Y-68673247D01*
X121531836Y-68660314D01*
X121526633Y-68640546D01*
X121516838Y-68622607D01*
X121515724Y-68599091D01*
X121514054Y-68592746D01*
X121515249Y-68589064D01*
X121514889Y-68581464D01*
X121525500Y-68493102D01*
X121525500Y-67906903D01*
X121525500Y-67906898D01*
X121514877Y-67818436D01*
X121459361Y-67677658D01*
X121459360Y-67677657D01*
X121459360Y-67677656D01*
X121367922Y-67557077D01*
X121240584Y-67460514D01*
X121241970Y-67458685D01*
X121201679Y-67417372D01*
X121187683Y-67348919D01*
X121212918Y-67283765D01*
X121269372Y-67242598D01*
X121272245Y-67241606D01*
X121294122Y-67234356D01*
X121294124Y-67234356D01*
X121443345Y-67142315D01*
X121567315Y-67018345D01*
X121575044Y-67005815D01*
X122075000Y-67005815D01*
X122085407Y-67107673D01*
X122140094Y-67272709D01*
X122140096Y-67272714D01*
X122231370Y-67420691D01*
X122354308Y-67543629D01*
X122502285Y-67634903D01*
X122502290Y-67634905D01*
X122667326Y-67689592D01*
X122769184Y-67699999D01*
X122769197Y-67700000D01*
X122812500Y-67700000D01*
X122812500Y-66750000D01*
X122075000Y-66750000D01*
X122075000Y-67005815D01*
X121575044Y-67005815D01*
X121659356Y-66869124D01*
X121659358Y-66869119D01*
X121714505Y-66702697D01*
X121714506Y-66702689D01*
X121716208Y-66686036D01*
X121716208Y-66686035D01*
X121724999Y-66599986D01*
X121725000Y-66599973D01*
X121725000Y-66550000D01*
X119275001Y-66550000D01*
X119275001Y-66599986D01*
X119285494Y-66702697D01*
X119340641Y-66869119D01*
X119340643Y-66869124D01*
X119432684Y-67018345D01*
X119556654Y-67142315D01*
X119705876Y-67234356D01*
X119727755Y-67241606D01*
X119785201Y-67281378D01*
X119812025Y-67345893D01*
X119799711Y-67414669D01*
X119758393Y-67459166D01*
X119759416Y-67460514D01*
X119632077Y-67557077D01*
X119540639Y-67677656D01*
X119485122Y-67818438D01*
X119479987Y-67861206D01*
X119474500Y-67906898D01*
X119474500Y-68493102D01*
X119477625Y-68519124D01*
X119485122Y-68581561D01*
X119540639Y-68722343D01*
X119632077Y-68842922D01*
X119752656Y-68934360D01*
X119752657Y-68934360D01*
X119752658Y-68934361D01*
X119893436Y-68989877D01*
X119981898Y-69000500D01*
X120682745Y-69000500D01*
X120712185Y-69009144D01*
X120742172Y-69015668D01*
X120747187Y-69019422D01*
X120749784Y-69020185D01*
X120770426Y-69036819D01*
X120813181Y-69079574D01*
X120846666Y-69140897D01*
X120849500Y-69167255D01*
X120849500Y-69850500D01*
X120829815Y-69917539D01*
X120777011Y-69963294D01*
X120725500Y-69974500D01*
X119756898Y-69974500D01*
X119717853Y-69979188D01*
X119668438Y-69985122D01*
X119527656Y-70040639D01*
X119407077Y-70132077D01*
X119315639Y-70252656D01*
X119260122Y-70393438D01*
X119254219Y-70442600D01*
X119249500Y-70481898D01*
X119249500Y-70481903D01*
X119249500Y-70525500D01*
X119229815Y-70592539D01*
X119177011Y-70638294D01*
X119125500Y-70649500D01*
X116305080Y-70649500D01*
X116238041Y-70629815D01*
X116193680Y-70579960D01*
X116139199Y-70468517D01*
X116056484Y-70385802D01*
X115960040Y-70338653D01*
X115908458Y-70291525D01*
X115890544Y-70223991D01*
X115911985Y-70157493D01*
X115926815Y-70139577D01*
X117070480Y-68995913D01*
X117075705Y-68986863D01*
X117126270Y-68938645D01*
X117194877Y-68925420D01*
X117222099Y-68931153D01*
X117247305Y-68939505D01*
X117247309Y-68939506D01*
X117350019Y-68949999D01*
X117599999Y-68949999D01*
X118100000Y-68949999D01*
X118349972Y-68949999D01*
X118349986Y-68949998D01*
X118452697Y-68939505D01*
X118619119Y-68884358D01*
X118619124Y-68884356D01*
X118768345Y-68792315D01*
X118892315Y-68668345D01*
X118984356Y-68519124D01*
X118984358Y-68519119D01*
X119039505Y-68352697D01*
X119039506Y-68352690D01*
X119049999Y-68249986D01*
X119050000Y-68249973D01*
X119050000Y-68100000D01*
X118100000Y-68100000D01*
X118100000Y-68949999D01*
X117599999Y-68949999D01*
X117600000Y-68949998D01*
X117600000Y-67974000D01*
X117619685Y-67906961D01*
X117672489Y-67861206D01*
X117724000Y-67850000D01*
X117850000Y-67850000D01*
X117850000Y-67724000D01*
X117869685Y-67656961D01*
X117922489Y-67611206D01*
X117974000Y-67600000D01*
X119049999Y-67600000D01*
X119049999Y-67450028D01*
X119049998Y-67450013D01*
X119039505Y-67347302D01*
X118984358Y-67180880D01*
X118984356Y-67180875D01*
X118892315Y-67031654D01*
X118795538Y-66934877D01*
X118762053Y-66873554D01*
X118767037Y-66803862D01*
X118780285Y-66779779D01*
X118780205Y-66779734D01*
X118784359Y-66772345D01*
X118784359Y-66772344D01*
X118784361Y-66772342D01*
X118839877Y-66631564D01*
X118850500Y-66543102D01*
X118850500Y-66000013D01*
X119275000Y-66000013D01*
X119275000Y-66050000D01*
X120250000Y-66050000D01*
X120750000Y-66050000D01*
X121724999Y-66050000D01*
X121724999Y-66000020D01*
X121724403Y-65994184D01*
X122075000Y-65994184D01*
X122075000Y-66250000D01*
X122812500Y-66250000D01*
X122812500Y-65300000D01*
X122769184Y-65300000D01*
X122667326Y-65310407D01*
X122502290Y-65365094D01*
X122502285Y-65365096D01*
X122354308Y-65456370D01*
X122231370Y-65579308D01*
X122140096Y-65727285D01*
X122140094Y-65727290D01*
X122085407Y-65892326D01*
X122075000Y-65994184D01*
X121724403Y-65994184D01*
X121714505Y-65897302D01*
X121659358Y-65730880D01*
X121659356Y-65730875D01*
X121567315Y-65581654D01*
X121443345Y-65457684D01*
X121294124Y-65365643D01*
X121294119Y-65365641D01*
X121127697Y-65310494D01*
X121127690Y-65310493D01*
X121024986Y-65300000D01*
X120750000Y-65300000D01*
X120750000Y-66050000D01*
X120250000Y-66050000D01*
X120250000Y-65300000D01*
X119975029Y-65300000D01*
X119975012Y-65300001D01*
X119872302Y-65310494D01*
X119705880Y-65365641D01*
X119705875Y-65365643D01*
X119556654Y-65457684D01*
X119432684Y-65581654D01*
X119340643Y-65730875D01*
X119340641Y-65730880D01*
X119285494Y-65897302D01*
X119285493Y-65897309D01*
X119275000Y-66000013D01*
X118850500Y-66000013D01*
X118850500Y-65756898D01*
X118839877Y-65668436D01*
X118784361Y-65527658D01*
X118784360Y-65527657D01*
X118784360Y-65527656D01*
X118692922Y-65407077D01*
X118572343Y-65315639D01*
X118431561Y-65260122D01*
X118385926Y-65254642D01*
X118343102Y-65249500D01*
X117356898Y-65249500D01*
X117317853Y-65254188D01*
X117268438Y-65260122D01*
X117127656Y-65315639D01*
X117007077Y-65407078D01*
X116968497Y-65457953D01*
X116912305Y-65499476D01*
X116842583Y-65504027D01*
X116781470Y-65470162D01*
X116764156Y-65448124D01*
X116692319Y-65331659D01*
X116692316Y-65331655D01*
X116572342Y-65211681D01*
X116538857Y-65150358D01*
X116543841Y-65080666D01*
X116585713Y-65024733D01*
X116651177Y-65000316D01*
X116660023Y-65000000D01*
X129375500Y-65000000D01*
X129442539Y-65019685D01*
G37*
%TD.AperFunction*%
%TA.AperFunction,Conductor*%
G36*
X114707016Y-65019685D02*
G01*
X114752771Y-65072489D01*
X114762715Y-65141647D01*
X114733690Y-65205203D01*
X114727658Y-65211681D01*
X114607684Y-65331654D01*
X114515643Y-65480875D01*
X114515641Y-65480880D01*
X114460494Y-65647302D01*
X114460493Y-65647309D01*
X114450000Y-65750013D01*
X114450000Y-65900000D01*
X115526000Y-65900000D01*
X115593039Y-65919685D01*
X115638794Y-65972489D01*
X115650000Y-66024000D01*
X115650000Y-66276000D01*
X115630315Y-66343039D01*
X115577511Y-66388794D01*
X115526000Y-66400000D01*
X114450001Y-66400000D01*
X114450001Y-66549986D01*
X114460494Y-66652697D01*
X114515641Y-66819119D01*
X114515643Y-66819124D01*
X114607684Y-66968345D01*
X114704462Y-67065123D01*
X114737947Y-67126446D01*
X114732963Y-67196138D01*
X114719715Y-67220222D01*
X114719795Y-67220267D01*
X114715637Y-67227661D01*
X114660123Y-67368434D01*
X114660123Y-67368436D01*
X114649500Y-67456898D01*
X114649500Y-67456903D01*
X114649500Y-68243100D01*
X114650836Y-68254231D01*
X114644582Y-68310474D01*
X114640783Y-68321178D01*
X114626793Y-68345412D01*
X114611436Y-68402727D01*
X114610165Y-68407469D01*
X114610164Y-68407473D01*
X114599500Y-68447273D01*
X114599500Y-69380192D01*
X114579815Y-69447231D01*
X114527011Y-69492986D01*
X114457853Y-69502930D01*
X114394297Y-69473905D01*
X114387819Y-69467873D01*
X113866819Y-68946873D01*
X113833334Y-68885550D01*
X113830500Y-68859192D01*
X113830500Y-65124000D01*
X113850185Y-65056961D01*
X113902989Y-65011206D01*
X113954500Y-65000000D01*
X114639977Y-65000000D01*
X114707016Y-65019685D01*
G37*
%TD.AperFunction*%
%TA.AperFunction,Conductor*%
G36*
X111128047Y-65011270D02*
G01*
X110668927Y-65011270D01*
X110681939Y-65003660D01*
X110711845Y-65000000D01*
X111089666Y-65000000D01*
X111128047Y-65011270D01*
G37*
%TD.AperFunction*%
%TD*%
M02*
