M48
; DRILL file {KiCad 9.0.4} date 2025-12-02T01:12:34+0000
; FORMAT={-:-/ absolute / metric / decimal}
; #@! TF.CreationDate,2025-12-02T01:12:34+00:00
; #@! TF.GenerationSoftware,Kicad,Pcbnew,9.0.4
; #@! TF.FileFunction,Plated,1,2,PTH
FMAT,2
METRIC
; #@! TA.AperFunction,Plated,PTH,ViaDrill
T1C0.300
; #@! TA.AperFunction,Plated,PTH,ComponentDrill
T2C0.400
; #@! TA.AperFunction,Plated,PTH,ComponentDrill
T3C0.600
%
G90
G05
T1
X103.0Y-93.25
X103.75Y-82.5
X104.5Y-72.0
X104.5Y-74.0
X105.5Y-76.0
X106.8Y-85.0
X107.25Y-83.5
X109.0Y-96.5
X109.3Y-76.1
X110.5Y-99.2
X112.0Y-74.0
X112.25Y-65.5
X112.25Y-66.25
X112.25Y-67.0
X112.25Y-67.75
X112.25Y-68.5
X112.25Y-69.25
X112.25Y-72.9
X112.75Y-70.0
X113.0Y-81.0
X113.25Y-78.75
X113.4Y-70.7
X114.1Y-65.25
X114.1Y-66.0
X114.1Y-66.75
X114.1Y-67.5
X114.1Y-68.25
X114.4Y-69.0
X115.0Y-72.5
X115.0Y-82.8
X115.5Y-75.75
X116.5Y-86.25
X117.0Y-77.5
X117.7Y-94.5
X119.0Y-80.5
X120.0Y-86.0
X120.25Y-78.25
X120.75Y-95.5
X121.25Y-74.0
X121.3Y-93.8
X122.25Y-78.25
X123.25Y-73.9
X127.3Y-93.5
X127.5Y-91.0
X127.7Y-84.7
T2
X128.5Y-73.325G85X129.2Y-73.325
G05
X128.5Y-77.675G85X129.2Y-77.675
G05
X128.5Y-88.825G85X129.2Y-88.825
G05
X128.5Y-93.175G85X129.2Y-93.175
G05
T3
X115.43Y-92.32G85X115.43Y-93.42
G05
X115.43Y-96.75G85X115.43Y-97.35
G05
X124.07Y-92.32G85X124.07Y-93.42
G05
X124.07Y-96.75G85X124.07Y-97.35
G05
M30
